<?xml version="1.0" encoding="UTF-8" standalone="no" ?>
<!DOCTYPE svg PUBLIC "-//W3C//DTD SVG 1.1//EN" "http://www.w3.org/Graphics/SVG/1.1/DTD/svg11.dtd">
<svg xmlns="http://www.w3.org/2000/svg" xmlns:xlink="http://www.w3.org/1999/xlink" version="1.1" width="1080" height="1080" viewBox="0 0 1080 1080" xml:space="preserve">
<desc>Created with Fabric.js 5.2.4</desc>
<defs>
</defs>
<g transform="matrix(1 0 0 1 540 540)" id="b67a094b-54e0-4fee-970f-0c8b5c510b87"  >
</g>
<g transform="matrix(1 0 0 1 540 540)" id="1a9aa6c4-8443-4ff4-b91a-34e58a56aa93"  >
<rect style="stroke: none; stroke-width: 1; stroke-dasharray: none; stroke-linecap: butt; stroke-dashoffset: 0; stroke-linejoin: miter; stroke-miterlimit: 4; fill: rgb(255,255,255); fill-rule: nonzero; opacity: 1; visibility: hidden;" vector-effect="non-scaling-stroke"  x="-540" y="-540" rx="0" ry="0" width="1080" height="1080" />
</g>
<g transform="matrix(1 0 0 1 296.5 529.5)"  >
<circle style="stroke: none; stroke-width: 1; stroke-dasharray: none; stroke-linecap: butt; stroke-dashoffset: 0; stroke-linejoin: miter; stroke-miterlimit: 4; fill: rgb(242,242,242); fill-rule: nonzero; opacity: 1;" vector-effect="non-scaling-stroke"  cx="0" cy="0" r="321" />
</g>
<g transform="matrix(1 0 0 1 534.5 844)"  >
<ellipse style="stroke: none; stroke-width: 1; stroke-dasharray: none; stroke-linecap: butt; stroke-dashoffset: 0; stroke-linejoin: miter; stroke-miterlimit: 4; fill: rgb(63,61,86); fill-rule: nonzero; opacity: 1;" vector-effect="non-scaling-stroke"  cx="0" cy="0" rx="514" ry="27.50002" />
</g>
<g transform="matrix(1 0 0 1 533.5 835.5)"  >
<ellipse style="stroke: none; stroke-width: 1; stroke-dasharray: none; stroke-linecap: butt; stroke-dashoffset: 0; stroke-linejoin: miter; stroke-miterlimit: 4; fill: rgb(0,0,0); fill-rule: nonzero; opacity: 0.2;" vector-effect="non-scaling-stroke"  cx="0" cy="0" rx="460" ry="22" />
</g>
<g transform="matrix(1 0 0 1 526.5 386)"  >
<rect style="stroke: none; stroke-width: 1; stroke-dasharray: none; stroke-linecap: butt; stroke-dashoffset: 0; stroke-linejoin: miter; stroke-miterlimit: 4; fill: rgb(63,61,86); fill-rule: nonzero; opacity: 1;" vector-effect="non-scaling-stroke"  x="-420" y="-25" rx="0" ry="0" width="840" height="50" />
</g>
<g transform="matrix(1 0 0 1 526.5 612.5)"  >
<path style="stroke: none; stroke-width: 1; stroke-dasharray: none; stroke-linecap: butt; stroke-dashoffset: 0; stroke-linejoin: miter; stroke-miterlimit: 4; fill: rgb(63,61,86); fill-rule: nonzero; opacity: 1;" vector-effect="non-scaling-stroke"  transform=" translate(-586.5, -522.5)" d="M 166.5 727.3299 C 166.49999734783287 733.0771686695276 168.78308976255042 738.5890449384007 172.8470224120749 742.6529775879251 C 176.91095506159934 746.7169102374495 182.4228313304723 749.0000026521672 188.1701 749 L 984.8299 749 C 990.5771686695276 749.0000026521672 996.0890449384007 746.7169102374496 1000.1529775879251 742.6529775879251 C 1004.2169102374496 738.5890449384007 1006.5000026521672 733.0771686695276 1006.5 727.3299 L 1006.5 296 L 166.5 296 Z" stroke-linecap="round" />
</g>
<g transform="matrix(1 0 0 1 526.5 356)"  >
<path style="stroke: none; stroke-width: 1; stroke-dasharray: none; stroke-linecap: butt; stroke-dashoffset: 0; stroke-linejoin: miter; stroke-miterlimit: 4; fill: rgb(63,61,86); fill-rule: nonzero; opacity: 1;" vector-effect="non-scaling-stroke"  transform=" translate(-586.5, -266)" d="M 984.8299 236 L 188.1701 236 C 182.4228313304723 235.9999973478329 176.91095506159934 238.28308976255045 172.8470224120749 242.3470224120749 C 168.78308976255045 246.41095506159937 166.4999973478329 251.9228313304723 166.5 257.6701 L 166.5 296 L 1006.5 296 L 1006.5 257.6701 C 1006.5000026521672 251.9228313304723 1004.2169102374495 246.41095506159934 1000.1529775879251 242.34702241207486 C 996.0890449384005 238.28308976255042 990.5771686695276 235.99999734783287 984.8299 236 Z" stroke-linecap="round" />
</g>
<g transform="matrix(1 0 0 1 312 615)"  >
<rect style="stroke: none; stroke-width: 1; stroke-dasharray: none; stroke-linecap: butt; stroke-dashoffset: 0; stroke-linejoin: miter; stroke-miterlimit: 4; fill: rgb(255,255,255); fill-rule: nonzero; opacity: 0.81;" vector-effect="non-scaling-stroke"  x="-168.5" y="-193" rx="5.33505" ry="5.33505" width="337" height="386" />
</g>
<g transform="matrix(1 0 0 1 540 356)"  >
<path style="stroke: none; stroke-width: 1; stroke-dasharray: none; stroke-linecap: butt; stroke-dashoffset: 0; stroke-linejoin: miter; stroke-miterlimit: 4; fill: rgb(0,0,0); fill-rule: nonzero; opacity: 0.2;" vector-effect="non-scaling-stroke"  transform=" translate(-586.5, -266)" d="M 984.8299 236 L 188.1701 236 C 182.4228313304723 235.9999973478329 176.91095506159934 238.28308976255045 172.8470224120749 242.3470224120749 C 168.78308976255045 246.41095506159937 166.4999973478329 251.9228313304723 166.5 257.6701 L 166.5 296 L 1006.5 296 L 1006.5 257.6701 C 1006.5000026521672 251.9228313304723 1004.2169102374495 246.41095506159934 1000.1529775879251 242.34702241207486 C 996.0890449384005 238.28308976255042 990.5771686695276 235.99999734783287 984.8299 236 Z" stroke-linecap="round" />
</g>
<g transform="matrix(1 0 0 1 156.5 356)"  >
<circle style="stroke: none; stroke-width: 1; stroke-dasharray: none; stroke-linecap: butt; stroke-dashoffset: 0; stroke-linejoin: miter; stroke-miterlimit: 4; fill: rgb(63,61,86); fill-rule: nonzero; opacity: 1;" vector-effect="non-scaling-stroke"  cx="0" cy="0" r="13" />
</g>
<g transform="matrix(1 0 0 1 192.5 356)"  >
<circle style="stroke: none; stroke-width: 1; stroke-dasharray: none; stroke-linecap: butt; stroke-dashoffset: 0; stroke-linejoin: miter; stroke-miterlimit: 4; fill: rgb(63,61,86); fill-rule: nonzero; opacity: 1;" vector-effect="non-scaling-stroke"  cx="0" cy="0" r="13" />
</g>
<g transform="matrix(1 0 0 1 228.5 356)"  >
<circle style="stroke: none; stroke-width: 1; stroke-dasharray: none; stroke-linecap: butt; stroke-dashoffset: 0; stroke-linejoin: miter; stroke-miterlimit: 4; fill: rgb(63,61,86); fill-rule: nonzero; opacity: 1;" vector-effect="non-scaling-stroke"  cx="0" cy="0" r="13" />
</g>
<g transform="matrix(1 0 0 1 720.5 492)"  >
<rect style="stroke: none; stroke-width: 1; stroke-dasharray: none; stroke-linecap: butt; stroke-dashoffset: 0; stroke-linejoin: miter; stroke-miterlimit: 4; fill: rgb(46,133,85); fill-rule: nonzero; opacity: 1;" vector-effect="non-scaling-stroke"  x="-142" y="-11" rx="5.47638" ry="5.47638" width="284" height="22" />
</g>
<g transform="matrix(1 0 0 1 720.5 568.5)"  >
<rect style="stroke: none; stroke-width: 1; stroke-dasharray: none; stroke-linecap: butt; stroke-dashoffset: 0; stroke-linejoin: miter; stroke-miterlimit: 4; fill: rgb(46,133,85); fill-rule: nonzero; opacity: 1;" vector-effect="non-scaling-stroke"  x="-208" y="-7.5" rx="5.47638" ry="5.47638" width="416" height="15" />
</g>
<g transform="matrix(1 0 0 1 720.5 612.5)"  >
<rect style="stroke: none; stroke-width: 1; stroke-dasharray: none; stroke-linecap: butt; stroke-dashoffset: 0; stroke-linejoin: miter; stroke-miterlimit: 4; fill: rgb(46,133,85); fill-rule: nonzero; opacity: 1;" vector-effect="non-scaling-stroke"  x="-208" y="-7.5" rx="5.47638" ry="5.47638" width="416" height="15" />
</g>
<g transform="matrix(1 0 0 1 720.5 656.5)"  >
<rect style="stroke: none; stroke-width: 1; stroke-dasharray: none; stroke-linecap: butt; stroke-dashoffset: 0; stroke-linejoin: miter; stroke-miterlimit: 4; fill: rgb(46,133,85); fill-rule: nonzero; opacity: 1;" vector-effect="non-scaling-stroke"  x="-208" y="-7.5" rx="5.47638" ry="5.47638" width="416" height="15" />
</g>
<g transform="matrix(1 0 0 1 720.5 700.5)"  >
<rect style="stroke: none; stroke-width: 1; stroke-dasharray: none; stroke-linecap: butt; stroke-dashoffset: 0; stroke-linejoin: miter; stroke-miterlimit: 4; fill: rgb(46,133,85); fill-rule: nonzero; opacity: 1;" vector-effect="non-scaling-stroke"  x="-208" y="-7.5" rx="5.47638" ry="5.47638" width="416" height="15" />
</g>
<g transform="matrix(1 0 0 1 884.5 774)"  >
<rect style="stroke: none; stroke-width: 1; stroke-dasharray: none; stroke-linecap: butt; stroke-dashoffset: 0; stroke-linejoin: miter; stroke-miterlimit: 4; fill: rgb(62,204,95); fill-rule: nonzero; opacity: 1;" vector-effect="non-scaling-stroke"  x="-44" y="-13" rx="7.02756" ry="7.02756" width="88" height="26" />
</g>
<g transform="matrix(1 0 0 1 1013.5 760.41)"  >
<path style="stroke: none; stroke-width: 1; stroke-dasharray: none; stroke-linecap: butt; stroke-dashoffset: 0; stroke-linejoin: miter; stroke-miterlimit: 4; fill: rgb(63,61,86); fill-rule: nonzero; opacity: 1;" vector-effect="non-scaling-stroke"  transform=" translate(-1073.5, -670.41)" d="M 1088.60287 624.61594 C 1091.263616166885 619.9716663835164 1092.6384385322458 614.7021427865488 1092.5857799999999 609.3499400000001 C 1092.5857799999999 595.5534200000001 1084.0421999999999 584.36913 1073.5032199999998 584.36913 C 1062.9642399999998 584.36913 1054.4206599999998 595.5534200000001 1054.4206599999998 609.3499400000001 C 1054.36802079006 614.7021404039772 1055.7428418565557 619.9716590225568 1058.4035699999997 624.61594 C 1053.0930143036576 634.1005546041129 1053.0930143036576 645.6634553958872 1058.4035699999997 655.1480700000001 C 1053.0930329673924 664.6326716723323 1053.0930329673924 676.1955483276679 1058.4035699999997 685.68015 C 1053.0930329673924 695.1647516723323 1053.0930329673924 706.7276283276678 1058.4035699999997 716.21223 C 1055.742840504815 720.8565104253796 1054.368019340906 726.1260294173311 1054.4206599999998 731.4782299999999 C 1054.4206599999998 745.2747499999999 1062.9641899999997 756.45904 1073.5032199999998 756.45904 C 1084.04225 756.45904 1092.5857799999999 745.2747499999999 1092.5857799999999 731.4782299999999 C 1092.638439981441 726.1260270347569 1091.263617518663 720.8565030644019 1088.60287 716.21223 C 1093.9134070326072 706.7276283276678 1093.9134070326072 695.1647516723323 1088.60287 685.68015 C 1093.9134070326072 676.1955483276679 1093.9134070326072 664.6326716723323 1088.60287 655.1480700000001 C 1093.913425696342 645.6634553958872 1093.913425696342 634.1005546041129 1088.60287 624.61594 Z" stroke-linecap="round" />
</g>
<g transform="matrix(1 0 0 1 1013.5 668.82)"  >
<ellipse style="stroke: none; stroke-width: 1; stroke-dasharray: none; stroke-linecap: butt; stroke-dashoffset: 0; stroke-linejoin: miter; stroke-miterlimit: 4; fill: rgb(63,61,86); fill-rule: nonzero; opacity: 1;" vector-effect="non-scaling-stroke"  cx="0" cy="0" rx="19.08256" ry="24.9808" />
</g>
<g transform="matrix(1 0 0 1 1013.5 638.28)"  >
<ellipse style="stroke: none; stroke-width: 1; stroke-dasharray: none; stroke-linecap: butt; stroke-dashoffset: 0; stroke-linejoin: miter; stroke-miterlimit: 4; fill: rgb(63,61,86); fill-rule: nonzero; opacity: 1;" vector-effect="non-scaling-stroke"  cx="0" cy="0" rx="19.08256" ry="24.9808" />
</g>
<g transform="matrix(1 0 0 1 1013.1 485.85)"  >
<path style="stroke: none; stroke-width: 1; stroke-dasharray: none; stroke-linecap: butt; stroke-dashoffset: 0; stroke-linejoin: miter; stroke-miterlimit: 4; fill: rgb(62,204,95); fill-rule: evenodd; opacity: 1;" vector-effect="non-scaling-stroke"  transform=" translate(-1073.09, -395.85)" d="M 1144.93871 339.34489 C 1147.5457107097413 336.0257808746226 1149.920227030498 332.53048140988307 1152.0452899999998 328.88397000000003 L 1101.9042899999997 320.64906 L 1156.1331399999997 321.05236 C 1166.646961695655 298.1769055648326 1167.2782994171325 271.9817032328465 1157.8786999999998 248.62631000000002 L 1085.1242099999997 286.3677 L 1152.2207899999996 237.04684 C 1135.087095129578 207.43916821174687 1102.8563833056464 189.8753540949321 1068.688403157804 191.52667515707464 C 1034.5204230099614 193.17799621921716 1004.1336696455506 213.7680805069954 989.9350063733847 244.89002919144122 C 975.7363431012187 276.01197787588706 980.1021171944277 312.45709233001395 1001.2497899999996 339.34488999999996 C 997.1860787839059 344.5106602794278 993.6910532229797 350.09943028270254 990.8252799999996 356.0143500000001 L 1055.9118799999997 389.82882000000006 L 986.5114199999997 366.53682000000003 C 976.611562820403 395.80188910180004 982.1549777315104 428.08689668853384 1001.2497899999997 452.37351 C 971.7755221526111 489.8458393596932 976.0518203634198 543.678462919363 1011.072484068642 576.0275130820287 C 1046.093147773864 608.3765632446945 1100.0953522261352 608.3765632446945 1135.1160159313574 576.0275130820287 C 1170.1366796365796 543.678462919363 1174.4129778473884 489.8458393596932 1144.9387099999997 452.37351 C 1171.0204314194323 419.2111348226558 1171.0204314194323 372.5072651773442 1144.9387099999997 339.3448900000001 Z" stroke-linecap="round" />
</g>
<g transform="matrix(1 0 0 1 1013.1 587.4)"  >
<path style="stroke: none; stroke-width: 1; stroke-dasharray: none; stroke-linecap: butt; stroke-dashoffset: 0; stroke-linejoin: miter; stroke-miterlimit: 4; fill: rgb(0,0,0); fill-rule: nonzero; opacity: 0.1;" vector-effect="non-scaling-stroke"  transform=" translate(-1073.09, -497.4)" d="M 981.6885 395.8592 C 981.656937877037 416.36291975142206 988.5496602501228 436.2766089271616 1001.24979 452.37351 C 971.7755221526113 489.8458393596932 976.05182036342 543.678462919363 1011.0724840686422 576.0275130820287 C 1046.0931477738643 608.3765632446945 1100.0953522261354 608.3765632446945 1135.1160159313577 576.0275130820287 C 1170.1366796365799 543.678462919363 1174.4129778473887 489.8458393596932 1144.93871 452.37351 C 1157.18982 436.82067 981.6885 385.60008 981.6885 395.8592 Z" stroke-linecap="round" />
</g>
<g transform="matrix(5 0 0 5 348.27 497.85)"  >
<path style="stroke: none; stroke-width: 1; stroke-dasharray: none; stroke-linecap: butt; stroke-dashoffset: 0; stroke-linejoin: miter; stroke-miterlimit: 4; fill: rgb(244,254,255); fill-rule: evenodd; opacity: 1;" vector-effect="non-scaling-stroke"  transform=" translate(-38.84, -9.34)" d="M 35.92 6.92 L 41.760000000000005 6.92 C 43.10000000000001 6.92 44.18000000000001 8 44.18000000000001 9.35 C 44.18000000000001 10.7 43.10000000000001 11.77 41.760000000000005 11.77 L 35.92 11.77 C 34.58 11.77 33.5 10.69 33.5 9.35 C 33.5 8.01 34.58 6.92 35.92 6.92 Z" stroke-linecap="round" />
</g>
<g transform="matrix(5 0 0 5 230.65 582.34)"  >
<path style="stroke: none; stroke-width: 1; stroke-dasharray: none; stroke-linecap: butt; stroke-dashoffset: 0; stroke-linejoin: miter; stroke-miterlimit: 4; fill: rgb(109,244,192); fill-rule: evenodd; opacity: 1;" vector-effect="non-scaling-stroke"  transform=" translate(-15.31, -26.24)" d="M 9.01 14.83 C 5.039999999999999 14.84 5 17.16 5 18.63 L 5 37.66 L 25.63 20.66 C 25.63 20.66 20.03 14.79 9.009999999999998 14.83 Z" stroke-linecap="round" />
</g>
<g transform="matrix(5 0 0 5 314.07 675.7)"  >
<path style="stroke: none; stroke-width: 1; stroke-dasharray: none; stroke-linecap: butt; stroke-dashoffset: 0; stroke-linejoin: miter; stroke-miterlimit: 4; fill: rgb(73,204,140); fill-rule: evenodd; opacity: 1;" vector-effect="non-scaling-stroke"  transform=" translate(-32, -44.91)" d="M 5 37.66 L 5 53.54 C 5 55.5 6.58 57.08 8.53 57.08 L 55.46 57.08 C 57.42 57.08 59 55.5 59 53.54 L 59 37.67 L 32.489999999999995 32.75 L 4.9999999999999964 37.66 Z" stroke-linecap="round" />
</g>
<g transform="matrix(5 0 0 5 264.1 700.49)"  >
<path style="stroke: none; stroke-width: 1; stroke-dasharray: none; stroke-linecap: butt; stroke-dashoffset: 0; stroke-linejoin: miter; stroke-miterlimit: 4; fill: rgb(109,212,161); fill-rule: evenodd; opacity: 1;" vector-effect="non-scaling-stroke"  transform=" translate(-22.01, -49.87)" d="M 12.13 42.67 C 9.940000000000001 42.690000000000005 7.570000000000001 42.980000000000004 5.000000000000001 43.67 L 5.000000000000001 53.54 C 5.000000000000001 55.5 6.580000000000001 57.08 8.530000000000001 57.08 L 38.09 57.08 C 39.53 52.58 38.85 47.37 38.85 47.37 C 30.79 50.62 23.96 42.599999999999994 12.130000000000003 42.669999999999995 Z" stroke-linecap="round" />
</g>
<g transform="matrix(5 0 0 5 311.01 594.93)"  >
<path style="stroke: none; stroke-width: 1; stroke-dasharray: none; stroke-linecap: butt; stroke-dashoffset: 0; stroke-linejoin: miter; stroke-miterlimit: 4; fill: rgb(172,255,223); fill-rule: evenodd; opacity: 1;" vector-effect="non-scaling-stroke"  transform=" translate(-32, -28.15)" d="M 59 37.67 C 59 35.79 58.99 32.82 58.58 31.8 C 56.97 27.76 51.739999999999995 18.630000000000003 37.48 18.630000000000003 C 23.22 18.630000000000003 9.13 28.97 6.19 32.83 C 5.2 34.12 5 36.28 5 37.66 L 59 37.66 Z" stroke-linecap="round" />
</g>
<g transform="matrix(5 0 0 5 389.65 552.1)"  >
<path style="stroke: none; stroke-width: 1; stroke-dasharray: none; stroke-linecap: butt; stroke-dashoffset: 0; stroke-linejoin: miter; stroke-miterlimit: 4; fill: rgb(243,251,252); fill-rule: evenodd; opacity: 1;" vector-effect="non-scaling-stroke"  transform=" translate(-47.12, -20.2)" d="M 49.35 12.24 C 48.01 12.24 46.92 13.32 46.92 14.66 C 46.92 16 48 17.09 49.35 17.09 L 52.32 17.09 C 53.5 17.09 54.45 18.04 54.45 19.22 C 54.45 20.4 53.5 21.34 52.32 21.34 L 38.64 21.34 C 36.76 21.34 35.24 22.86 35.24 24.75 C 35.24 26.64 36.760000000000005 28.15 38.64 28.15 L 56.75 28.15 C 57.99 28.15 58.99 27.139999999999997 58.99 25.9 L 58.99 14.48 C 58.99 13.24 57.99 12.24 56.75 12.24 L 49.34 12.24 Z" stroke-linecap="round" />
</g>
<g transform="matrix(5 0 0 5 348.14 697.12)"  >
<path style="stroke: none; stroke-width: 1; stroke-dasharray: none; stroke-linecap: butt; stroke-dashoffset: 0; stroke-linejoin: miter; stroke-miterlimit: 4; fill: rgb(145,222,179); fill-rule: evenodd; opacity: 1;" vector-effect="non-scaling-stroke"  transform=" translate(-38.81, -49.2)" d="M 59 41.32 C 51.22 41.32 45.37 42.35 38.85 47.37 C 30.560000000000002 53.75 21.400000000000002 47.919999999999995 18.630000000000003 57.08 L 55.46 57.08 C 57.42 57.08 59 55.5 59 53.54 L 59 41.32 Z" stroke-linecap="round" />
</g>
<g transform="matrix(5 0 0 5 415.6 707.85)"  >
<path style="stroke: none; stroke-width: 1; stroke-dasharray: none; stroke-linecap: butt; stroke-dashoffset: 0; stroke-linejoin: miter; stroke-miterlimit: 4; fill: rgb(133,152,171); fill-rule: evenodd; opacity: 1;" vector-effect="non-scaling-stroke"  transform=" translate(-52.31, -51.34)" d="M 57.84 45.61 C 56.88 45.61 56.03 46.38 55.720000000000006 47.3 C 55.28000000000001 48.629999999999995 55.38 49.94 54.010000000000005 50.3 L 50.57000000000001 51.07 C 49.040000000000006 51.410000000000004 47.760000000000005 52.44 47.10000000000001 53.86 L 45.60000000000001 57.08 L 55.470000000000006 57.08 C 57.43000000000001 57.08 59.010000000000005 55.5 59.010000000000005 53.54 L 59.010000000000005 45.61 L 57.85000000000001 45.61 Z" stroke-linecap="round" />
</g>
<g transform="matrix(5 0 0 5 227.1 530.64)"  >
<path style="stroke: none; stroke-width: 1; stroke-dasharray: none; stroke-linecap: butt; stroke-dashoffset: 0; stroke-linejoin: miter; stroke-miterlimit: 4; fill: rgb(242,254,255); fill-rule: evenodd; opacity: 1;" vector-effect="non-scaling-stroke"  transform=" translate(-14.61, -15.9)" d="M 12.81 22.34 C 13.9 22.34 14.77 21.46 14.77 20.38 C 14.77 19.299999999999997 13.889999999999999 18.419999999999998 12.809999999999999 18.419999999999998 L 10.399999999999999 18.419999999999998 C 9.45 18.419999999999998 8.679999999999998 17.65 8.679999999999998 16.7 C 8.679999999999998 15.75 9.449999999999998 14.969999999999999 10.399999999999999 14.969999999999999 L 21.46 14.969999999999999 C 22.98 14.969999999999999 24.21 13.749999999999998 24.21 12.219999999999999 C 24.21 10.69 22.98 9.469999999999999 21.46 9.469999999999999 L 6.82 9.469999999999999 C 5.82 9.469999999999999 5 10.28 5 11.29 L 5 20.52 C 5 21.53 5.8100000000000005 22.34 6.82 22.34 L 12.81 22.34 Z" stroke-linecap="round" />
</g>
<g transform="matrix(5 0 0 5 208.38 723.17)"  >
<path style="stroke: none; stroke-width: 1; stroke-dasharray: none; stroke-linecap: butt; stroke-dashoffset: 0; stroke-linejoin: miter; stroke-miterlimit: 4; fill: rgb(64,178,122); fill-rule: evenodd; opacity: 1;" vector-effect="non-scaling-stroke"  transform=" translate(-10.86, -54.41)" d="M 10.86 51.74 C 10.309999999999999 51.74 9.86 52.190000000000005 9.86 52.74 L 9.86 53.39 C 9.53 53.21 9.12 53 9.12 53 C 8.59 52.87 8.04 53.2 7.909999999999999 53.73 C 7.779999999999999 54.26 8.11 54.809999999999995 8.639999999999999 54.94 C 8.639999999999999 54.94 9.509999999999998 55.07 9.899999999999999 56.37 C 10.03 56.79 10.419999999999998 57.08 10.86 57.08 C 11.3 57.08 11.69 56.79 11.82 56.37 C 12.22 55.07 13.08 54.94 13.08 54.94 C 13.53 54.83 13.84 54.43 13.84 53.97 C 13.84 53.89 13.84 53.81 13.81 53.73 C 13.68 53.199999999999996 13.13 52.87 12.600000000000001 53 C 12.600000000000001 53 12.190000000000001 53.21 11.860000000000001 53.39 L 11.860000000000001 52.74 C 11.860000000000001 52.190000000000005 11.410000000000002 51.74 10.860000000000001 51.74 Z" stroke-linecap="round" />
</g>
<g transform="matrix(5 0 0 5 384.87 658.77)"  >
<path style="stroke: none; stroke-width: 1; stroke-dasharray: none; stroke-linecap: butt; stroke-dashoffset: 0; stroke-linejoin: miter; stroke-miterlimit: 4; fill: rgb(64,178,122); fill-rule: evenodd; opacity: 1;" vector-effect="non-scaling-stroke"  transform=" translate(-46.16, -41.53)" d="M 46.16 38.86 C 45.61 38.86 45.16 39.31 45.16 39.86 L 45.16 40.51 C 44.83 40.339999999999996 44.419999999999995 40.129999999999995 44.419999999999995 40.129999999999995 C 43.88999999999999 39.989999999999995 43.339999999999996 40.31999999999999 43.209999999999994 40.85999999999999 C 43.07999999999999 41.38999999999999 43.41 41.93999999999999 43.93999999999999 42.06999999999999 C 43.93999999999999 42.06999999999999 44.80999999999999 42.18999999999999 45.19999999999999 43.489999999999995 C 45.32999999999999 43.91 45.71999999999999 44.199999999999996 46.15999999999999 44.199999999999996 C 46.59999999999999 44.199999999999996 46.98999999999999 43.91 47.11999999999999 43.489999999999995 C 47.51999999999999 42.19 48.37999999999999 42.06999999999999 48.37999999999999 42.06999999999999 C 48.90999999999999 41.93999999999999 49.23999999999999 41.38999999999999 49.109999999999985 40.85999999999999 C 48.97999999999998 40.31999999999999 48.429999999999986 39.989999999999995 47.899999999999984 40.129999999999995 C 47.899999999999984 40.129999999999995 47.48999999999999 40.339999999999996 47.15999999999998 40.51 L 47.15999999999998 39.86 C 47.15999999999998 39.31 46.70999999999998 38.86 46.15999999999998 38.86 Z" stroke-linecap="round" />
</g>
<g transform="matrix(5 0 0 5 324.37 683.37)"  >
<path style="stroke: none; stroke-width: 1; stroke-dasharray: none; stroke-linecap: butt; stroke-dashoffset: 0; stroke-linejoin: miter; stroke-miterlimit: 4; fill: rgb(64,178,122); fill-rule: evenodd; opacity: 1;" vector-effect="non-scaling-stroke"  transform=" translate(-34.06, -46.45)" d="M 34.06 43.78 C 33.510000000000005 43.78 33.06 44.230000000000004 33.06 44.78 L 33.06 45.42 C 32.730000000000004 45.25 32.32 45.04 32.32 45.04 C 31.79 44.91 31.240000000000002 45.24 31.11 45.769999999999996 C 30.98 46.3 31.31 46.849999999999994 31.84 46.98 C 31.84 46.98 32.71 47.11 33.1 48.41 C 33.230000000000004 48.83 33.620000000000005 49.12 34.06 49.12 C 34.5 49.12 34.89 48.83 35.02 48.41 C 35.42 47.11 36.28 46.98 36.28 46.98 C 36.81 46.849999999999994 37.14 46.3 37.01 45.769999999999996 C 36.879999999999995 45.239999999999995 36.33 44.91 35.8 45.04 C 35.8 45.04 35.39 45.25 35.059999999999995 45.43 L 35.059999999999995 44.78 C 35.059999999999995 44.230000000000004 34.60999999999999 43.78 34.059999999999995 43.78 Z" stroke-linecap="round" />
</g>
<g transform="matrix(5 0 0 5 247.57 660.02)"  >
<path style="stroke: none; stroke-width: 1; stroke-dasharray: none; stroke-linecap: butt; stroke-dashoffset: 0; stroke-linejoin: miter; stroke-miterlimit: 4; fill: rgb(64,178,122); fill-rule: evenodd; opacity: 1;" vector-effect="non-scaling-stroke"  transform=" translate(-18.7, -41.78)" d="M 18.7 39.11 C 18.15 39.11 17.7 39.56 17.7 40.11 L 17.7 40.76 L 16.96 40.379999999999995 C 16.43 40.239999999999995 15.88 40.56999999999999 15.75 41.10999999999999 C 15.62 41.63999999999999 15.95 42.18999999999999 16.48 42.31999999999999 C 16.48 42.31999999999999 17.35 42.43999999999999 17.740000000000002 43.739999999999995 C 17.87 44.16 18.26 44.449999999999996 18.700000000000003 44.449999999999996 C 19.140000000000004 44.449999999999996 19.53 44.16 19.660000000000004 43.739999999999995 C 20.060000000000002 42.44 20.920000000000005 42.31999999999999 20.920000000000005 42.31999999999999 C 21.450000000000006 42.18999999999999 21.780000000000005 41.63999999999999 21.650000000000006 41.10999999999999 C 21.520000000000007 40.56999999999999 20.970000000000006 40.239999999999995 20.440000000000005 40.379999999999995 C 20.440000000000005 40.379999999999995 20.030000000000005 40.589999999999996 19.700000000000006 40.76 L 19.700000000000006 40.11 C 19.700000000000006 39.56 19.250000000000007 39.11 18.700000000000006 39.11 Z" stroke-linecap="round" />
</g>
</svg>