<?xml version="1.0" encoding="UTF-8" standalone="no" ?>
<!DOCTYPE svg PUBLIC "-//W3C//DTD SVG 1.1//EN" "http://www.w3.org/Graphics/SVG/1.1/DTD/svg11.dtd">
<svg xmlns="http://www.w3.org/2000/svg" xmlns:xlink="http://www.w3.org/1999/xlink" version="1.1" width="1080" height="1080" viewBox="0 0 1080 1080" xml:space="preserve">
<desc>Created with Fabric.js 5.2.4</desc>
<defs>
</defs>
<g transform="matrix(1 0 0 1 540 540)" id="277ab964-9d32-4471-9f12-06a50cdd6fab"  >
<rect style="stroke: none; stroke-width: 1; stroke-dasharray: none; stroke-linecap: butt; stroke-dashoffset: 0; stroke-linejoin: miter; stroke-miterlimit: 4; fill: rgb(255,255,255); fill-rule: nonzero; opacity: 1; visibility: hidden;" vector-effect="non-scaling-stroke"  x="-540" y="-540" rx="0" ry="0" width="1080" height="1080" />
</g>
<g transform="matrix(1 0 0 1 540 540)" id="cb3b59a9-bb83-4cce-b9ad-cf007927a9be"  >
</g>
<g transform="matrix(1 0 0 1 540 539.95)"  >
<path style="stroke: none; stroke-width: 1; stroke-dasharray: none; stroke-linecap: butt; stroke-dashoffset: 0; stroke-linejoin: miter; stroke-miterlimit: 4; fill: rgb(242,242,242); fill-rule: nonzero; opacity: 1;" vector-effect="non-scaling-stroke"  transform=" translate(-599.99, -449.96)" d="M 1040.82 611.12 Q 1039.08 614.87 1037.35 618.52 Q 1034.6499999999999 624.1899999999999 1032.02 629.64 C 1031.24 631.25 1030.46 632.83 1029.7 634.41 C 1021.1 651.98 1013.07 667.52 1006.25 680.3 C 993.645040657272 703.8865080830484 969.1819460739163 718.7230816667479 942.44 719 L 790.7900000000001 720.65 L 789.19 720.65 L 776.19 720.79 L 765.07 720.91 L 730.97 721.28 L 729.59 721.28 L 712.23 721.47 L 711.7 721.47 L 604.7 722.63 L 509.19000000000005 723.63 L 498.08000000000004 723.75 L 429.08000000000004 724.5 L 429 724.5 L 384.25 724.98 L 383.77 724.98 L 242.26999999999998 726.51 L 199.94 726.97 C 196.3356678335484 727.0111770716177 192.73221096792858 726.8308372470177 189.15 726.4300000000001 L 189.15 726.4300000000001 C 187.93 726.2900000000001 186.71 726.1300000000001 185.5 725.94 C 165.75798706116953 722.8925406666754 147.6561264160203 713.1728050034386 134.21000000000004 698.4000000000001 C 116 678.37 102.75 655 93.85 629.64 Q 91.91999999999999 624.15 90.25 618.52 C 59.44 514.37 97 380 164.6 290.08 Q 168.85 284.44 173.24 279.08 L 173.31 279 C 194.1 253.48 217.41 232.16 242.24 217 C 286.24 190.09 334.99 182.51 382.94 205.1 C 423.51 224.22 461.39 233.20999999999998 498.11 235.65 C 501.82 235.89000000000001 505.53000000000003 236.07 509.22 236.18 C 593.45 238.83 672.39 208.48000000000002 765.09 188.89000000000001 C 768.7800000000001 188.11 772.48 187.34 776.21 186.61 C 842.34 173.45000000000002 915.7 166.51000000000002 1002.94 181.10000000000002 C 1012.0035828533623 182.58065896003004 1020.9472542019507 184.71965360244275 1029.7 187.5 Q 1035.47 189.36000000000004 1040.82 191.50000000000003 C 1082.46 208.44000000000003 1105.1699999999998 239.74000000000004 1114.82 278.96000000000004 Q 1116.1899999999998 284.42 1117.1899999999998 290.07000000000005 C 1134.3 384.41 1084.19 518.23 1040.82 611.12 Z" stroke-linecap="round" />
</g>
<g transform="matrix(1 0 0 1 543.75 546.81)"  >
<path style="stroke: none; stroke-width: 1; stroke-dasharray: none; stroke-linecap: butt; stroke-dashoffset: 0; stroke-linejoin: miter; stroke-miterlimit: 4; fill: rgb(0,0,0); fill-rule: nonzero; opacity: 0.1;" vector-effect="non-scaling-stroke"  transform=" translate(-603.74, -456.83)" d="M 576.36 618.52 C 575.9569052572552 622.2603559054568 575.3324770893378 625.9735330323246 574.49 629.64 L 668.19 629.64 L 668.19 618.52 Z M 498.11 681.3299999999999 L 509.22 681.2399999999999 L 509.22 653.77 C 505.41 653.6 501.70000000000005 653.43 498.11 653.25 Z M 265.19 618.52 L 265.19 629.64 L 463.69 629.64 L 463.69 618.52 Z M 1114.87 279 L 1040.87 279 L 1040.87 191.51 Q 1035.52 189.34 1029.75 187.51 L 1029.75 279 L 776.21 279 L 776.21 186.58 C 772.48 187.31 768.7800000000001 188.08 765.09 188.86 L 765.09 279 L 509.22 279 L 509.22 236.15 C 505.53000000000003 236.04 501.82000000000005 235.86 498.11 235.62 L 498.11 279 L 242.24 279 L 242.24 217 C 217.41000000000003 232.16 194.10000000000002 253.48 173.31 279 L 173.24 279 L 173.24 279.08 Q 168.84 284.47999999999996 164.60000000000002 290.08 L 173.24 290.08 L 173.24 618.52 L 90.24000000000001 618.52 Q 91.9 624.15 93.84 629.64 L 173.23000000000002 629.64 L 173.23000000000002 723.26 C 177.22441657762465 724.4816684919492 181.30162940064972 725.4140802768869 185.43 726.05 C 186.64000000000001 726.24 187.86 726.4 189.08 726.54 L 189.08 726.54 C 192.66221096792862 726.9408372470176 196.2656678335484 727.1211770716176 199.86999999999998 727.0799999999999 L 242.2 726.6199999999999 L 242.2 629.6199999999999 L 498.11 629.6199999999999 L 498.11 723.8299999999999 L 509.22 723.7099999999999 L 509.22 629.64 L 765.09 629.64 L 765.09 721 L 776.21 720.88 L 776.21 629.64 L 1029.7 629.64 L 1029.7 634.41 C 1030.46 632.8299999999999 1031.24 631.25 1032.02 629.64 Q 1034.65 624.1899999999999 1037.35 618.52 Q 1039.08 614.88 1040.82 611.12 L 1040.82 290.12 L 1117.24 290.12 Q 1116.23 284.43 1114.87 279 Z M 242.24 618.52 L 242.24 290.08 L 498.11 290.08 L 498.11 618.52 Z M 509.24 618.52 L 509.24 290.08 L 765.09 290.08 L 765.09 618.52 Z M 1029.72 618.52 L 776.21 618.52 L 776.21 290.08 L 1029.7 290.08 Z" stroke-linecap="round" />
</g>
<g transform="matrix(1 0 0 1 503.94 792.29)"  >
<path style="stroke: none; stroke-width: 1; stroke-dasharray: none; stroke-linecap: butt; stroke-dashoffset: 0; stroke-linejoin: miter; stroke-miterlimit: 4; fill: rgb(101,97,125); fill-rule: nonzero; opacity: 1;" vector-effect="non-scaling-stroke"  transform=" translate(-484.59, -529.4)" d="M 863.09 533.65 L 863.09 546.65 L 711.1700000000001 548.05 L 709.5500000000001 548.0799999999999 L 651.8100000000001 548.6099999999999 L 650.4300000000001 548.6299999999999 L 632.8800000000001 548.7799999999999 L 632.3600000000001 548.7799999999999 L 525.3800000000001 549.7699999999999 L 349.77 551.4 L 349.62 551.4 L 304.97 551.8199999999999 L 304.49 551.8299999999999 L 106.09 553.65 L 106.09 538.65 L 152.74 510.65 L 246.34 509.87 L 248.34 509.86 L 249 509.85 L 251 509.82000000000005 L 295.94 509.45000000000005 L 297.95 509.44000000000005 L 298.59 509.43000000000006 L 300.59 509.4200000000001 L 315 509.3 L 315.38 509.29 L 350.93 508.99 L 351.22 508.99 L 628.62 506.65000000000003 L 635.41 506.6 L 636.0899999999999 506.6 L 641.2699999999999 506.55 L 678.9199999999998 506.24 L 680.9199999999998 506.21000000000004 L 682.7699999999999 506.19000000000005 L 683.7299999999999 506.19000000000005 L 695.4399999999999 506.1000000000001 L 697.76 506.0700000000001 L 700.87 506.0500000000001 L 710.62 505.96000000000015 L 726.09 505.83000000000015 L 728.09 505.8100000000002 L 731.57 505.7900000000002 L 732.22 505.7900000000002 L 806.9300000000001 505.1500000000002 Z" stroke-linecap="round" />
</g>
<g transform="matrix(1 0 0 1 503.94 792.29)"  >
<path style="stroke: none; stroke-width: 1; stroke-dasharray: none; stroke-linecap: butt; stroke-dashoffset: 0; stroke-linejoin: miter; stroke-miterlimit: 4; fill: rgb(0,0,0); fill-rule: nonzero; opacity: 0.2;" vector-effect="non-scaling-stroke"  transform=" translate(-484.59, -529.4)" d="M 863.09 533.65 L 863.09 546.65 L 711.1700000000001 548.05 L 709.5500000000001 548.0799999999999 L 651.8100000000001 548.6099999999999 L 650.4300000000001 548.6299999999999 L 632.8800000000001 548.7799999999999 L 632.3600000000001 548.7799999999999 L 525.3800000000001 549.7699999999999 L 349.77 551.4 L 349.62 551.4 L 304.97 551.8199999999999 L 304.49 551.8299999999999 L 106.09 553.65 L 106.09 538.65 L 152.74 510.65 L 246.34 509.87 L 248.34 509.86 L 249 509.85 L 251 509.82000000000005 L 295.94 509.45000000000005 L 297.95 509.44000000000005 L 298.59 509.43000000000006 L 300.59 509.4200000000001 L 315 509.3 L 315.38 509.29 L 350.93 508.99 L 351.22 508.99 L 628.62 506.65000000000003 L 635.41 506.6 L 636.0899999999999 506.6 L 641.2699999999999 506.55 L 678.9199999999998 506.24 L 680.9199999999998 506.21000000000004 L 682.7699999999999 506.19000000000005 L 683.7299999999999 506.19000000000005 L 695.4399999999999 506.1000000000001 L 697.76 506.0700000000001 L 700.87 506.0500000000001 L 710.62 505.96000000000015 L 726.09 505.83000000000015 L 728.09 505.8100000000002 L 731.57 505.7900000000002 L 732.22 505.7900000000002 L 806.9300000000001 505.1500000000002 Z" stroke-linecap="round" />
</g>
<g transform="matrix(1 0 0 1 291.87 762.24)"  >
<path style="stroke: none; stroke-width: 1; stroke-dasharray: none; stroke-linecap: butt; stroke-dashoffset: 0; stroke-linejoin: miter; stroke-miterlimit: 4; fill: rgb(63,61,86); fill-rule: nonzero; opacity: 1;" vector-effect="non-scaling-stroke"  transform=" translate(-351.85, -672.26)" d="M 375.44 656.57 L 375.44 681.0600000000001 C 375.4411016983141 683.4276197266184 374.07863968920327 685.584202449611 371.94 686.6 C 371.1598089573317 686.9782890378622 370.30689748183096 687.1829877919823 369.44 687.2 L 334.54 687.94 C 333.6079380007522 687.9623548137577 332.6834906452108 687.7671937053655 331.84000000000003 687.37 C 329.6625140327907 686.3719526060003 328.2674343444408 684.195315669275 328.27000000000004 681.8 L 328.27000000000004 656.57 Z" stroke-linecap="round" />
</g>
<g transform="matrix(1 0 0 1 291.87 762.24)"  >
<path style="stroke: none; stroke-width: 1; stroke-dasharray: none; stroke-linecap: butt; stroke-dashoffset: 0; stroke-linejoin: miter; stroke-miterlimit: 4; fill: rgb(0,0,0); fill-rule: nonzero; opacity: 0.1;" vector-effect="non-scaling-stroke"  transform=" translate(-351.85, -672.26)" d="M 375.44 656.57 L 375.44 681.0600000000001 C 375.4411016983141 683.4276197266184 374.07863968920327 685.584202449611 371.94 686.6 C 371.1598089573317 686.9782890378622 370.30689748183096 687.1829877919823 369.44 687.2 L 334.54 687.94 C 333.6079380007522 687.9623548137577 332.6834906452108 687.7671937053655 331.84000000000003 687.37 C 329.6625140327907 686.3719526060003 328.2674343444408 684.195315669275 328.27000000000004 681.8 L 328.27000000000004 656.57 Z" stroke-linecap="round" />
</g>
<g transform="matrix(1 0 0 1 293.87 762.24)"  >
<path style="stroke: none; stroke-width: 1; stroke-dasharray: none; stroke-linecap: butt; stroke-dashoffset: 0; stroke-linejoin: miter; stroke-miterlimit: 4; fill: rgb(63,61,86); fill-rule: nonzero; opacity: 1;" vector-effect="non-scaling-stroke"  transform=" translate(-353.85, -672.26)" d="M 377.44 656.57 L 377.44 681.0600000000001 C 377.4411016983141 683.4276197266184 376.07863968920327 685.584202449611 373.94 686.6 C 373.1598089573317 686.9782890378622 372.30689748183096 687.1829877919823 371.44 687.2 L 336.54 687.94 C 335.6079380007522 687.9623548137577 334.6834906452108 687.7671937053655 333.84000000000003 687.37 C 331.6625140327907 686.3719526060003 330.2674343444408 684.195315669275 330.27000000000004 681.8 L 330.27000000000004 656.57 Z" stroke-linecap="round" />
</g>
<g transform="matrix(1 0 0 1 723.86 762.29)" id="Rectangle_137"  >
<rect style="stroke: none; stroke-width: 1; stroke-dasharray: none; stroke-linecap: butt; stroke-dashoffset: 0; stroke-linejoin: miter; stroke-miterlimit: 4; fill: rgb(63,61,86); fill-rule: nonzero; opacity: 1;" vector-effect="non-scaling-stroke"  x="-23.585" y="-15.75" rx="0" ry="0" width="47.17" height="31.5" />
</g>
<g transform="matrix(1 0 0 1 723.86 762.29)" id="Rectangle_138"  >
<rect style="stroke: none; stroke-width: 1; stroke-dasharray: none; stroke-linecap: butt; stroke-dashoffset: 0; stroke-linejoin: miter; stroke-miterlimit: 4; fill: rgb(0,0,0); fill-rule: nonzero; opacity: 0.1;" vector-effect="non-scaling-stroke"  x="-23.585" y="-15.75" rx="0" ry="0" width="47.17" height="31.5" />
</g>
<g transform="matrix(1 0 0 1 721.86 762.29)" id="Rectangle_139"  >
<rect style="stroke: none; stroke-width: 1; stroke-dasharray: none; stroke-linecap: butt; stroke-dashoffset: 0; stroke-linejoin: miter; stroke-miterlimit: 4; fill: rgb(63,61,86); fill-rule: nonzero; opacity: 1;" vector-effect="non-scaling-stroke"  x="-23.585" y="-15.75" rx="0" ry="0" width="47.17" height="31.5" />
</g>
<g transform="matrix(1 0 0 1 293.86 749.65)"  >
<path style="stroke: none; stroke-width: 1; stroke-dasharray: none; stroke-linecap: butt; stroke-dashoffset: 0; stroke-linejoin: miter; stroke-miterlimit: 4; fill: rgb(0,0,0); fill-rule: nonzero; opacity: 0.1;" vector-effect="non-scaling-stroke"  transform=" translate(-274.5, -486.76)" d="M 298.09 483.65 L 298.09 488.62 L 250.91999999999996 489.88 L 250.91999999999996 483.65 Z" stroke-linecap="round" />
</g>
<g transform="matrix(1 0 0 1 300.95 661.9)"  >
<path style="stroke: none; stroke-width: 1; stroke-dasharray: none; stroke-linecap: butt; stroke-dashoffset: 0; stroke-linejoin: miter; stroke-miterlimit: 4; fill: rgb(101,97,125); fill-rule: nonzero; opacity: 1;" vector-effect="non-scaling-stroke"  transform=" translate(-360.94, -571.92)" d="M 460.69 485.27 L 460.69 653.47 C 460.6648368304068 655.6024613391085 458.97111534450937 657.3401755908733 456.84 657.4200000000001 L 265.18999999999994 662.5200000000001 L 265.13999999999993 662.5200000000001 C 262.96974172119843 662.4930371618547 261.2169628381453 660.7402582788015 261.18999999999994 658.57 L 261.18999999999994 485.27 C 261.2169628381453 483.0997417211985 262.96974172119843 481.3469628381454 265.13999999999993 481.32 L 456.7399999999999 481.32 C 458.9102582788014 481.3469628381454 460.6630371618545 483.0997417211985 460.6899999999999 485.27 Z" stroke-linecap="round" />
</g>
<g transform="matrix(1 0 0 1 203.2 661.9)"  >
<path style="stroke: none; stroke-width: 1; stroke-dasharray: none; stroke-linecap: butt; stroke-dashoffset: 0; stroke-linejoin: miter; stroke-miterlimit: 4; fill: rgb(0,0,0); fill-rule: nonzero; opacity: 0.1;" vector-effect="non-scaling-stroke"  transform=" translate(-263.19, -571.92)" d="M 265.19 481.32 L 265.19 662.52 L 265.14 662.52 C 262.9697417211985 662.4930371618545 261.2169628381454 660.7402582788014 261.19 658.5699999999999 L 261.19 485.27 C 261.2169628381454 483.0997417211985 262.9697417211985 481.3469628381454 265.14 481.32 Z" stroke-linecap="round" />
</g>
<g transform="matrix(1 0 0 1 302.69 658.16)"  >
<path style="stroke: none; stroke-width: 1; stroke-dasharray: none; stroke-linecap: butt; stroke-dashoffset: 0; stroke-linejoin: miter; stroke-miterlimit: 4; fill: rgb(57,55,77); fill-rule: nonzero; opacity: 1;" vector-effect="non-scaling-stroke"  transform=" translate(-283.34, -395.27)" d="M 194.59 319.15 L 372.09000000000003 319.15 L 372.09000000000003 467.4 L 194.59000000000003 471.4 Z" stroke-linecap="round" />
</g>
<g transform="matrix(1 0 0 1 721.86 749.75)"  >
<path style="stroke: none; stroke-width: 1; stroke-dasharray: none; stroke-linecap: butt; stroke-dashoffset: 0; stroke-linejoin: miter; stroke-miterlimit: 4; fill: rgb(0,0,0); fill-rule: nonzero; opacity: 0.1;" vector-effect="non-scaling-stroke"  transform=" translate(-702.51, -486.86)" d="M 726.09 483.65 L 726.09 490.06 L 678.9200000000001 488.8 L 678.9200000000001 483.65000000000003 Z" stroke-linecap="round" />
</g>
<g transform="matrix(1 0 0 1 707.93 661.9)"  >
<path style="stroke: none; stroke-width: 1; stroke-dasharray: none; stroke-linecap: butt; stroke-dashoffset: 0; stroke-linejoin: miter; stroke-miterlimit: 4; fill: rgb(101,97,125); fill-rule: nonzero; opacity: 1;" vector-effect="non-scaling-stroke"  transform=" translate(-767.92, -571.92)" d="M 867.69 485.27 L 867.69 658.5699999999999 C 867.6626280167877 660.7595881100991 865.8797591849526 662.5201710815364 863.69 662.52 L 863.69 662.52 L 672 657.42 C 669.8688846554905 657.3401755908732 668.1751631695932 655.6024613391083 668.15 653.4699999999999 L 668.15 485.27 C 668.1769628381454 483.0997417211985 669.9297417211985 481.3469628381454 672.1 481.32 L 863.7 481.32 C 865.8858630291468 481.32529397601 867.6626830427734 483.0843012576706 867.69 485.27 Z" stroke-linecap="round" />
</g>
<g transform="matrix(1 0 0 1 805.7 661.9)"  >
<path style="stroke: none; stroke-width: 1; stroke-dasharray: none; stroke-linecap: butt; stroke-dashoffset: 0; stroke-linejoin: miter; stroke-miterlimit: 4; fill: rgb(0,0,0); fill-rule: nonzero; opacity: 0.1;" vector-effect="non-scaling-stroke"  transform=" translate(-865.69, -571.92)" d="M 867.69 485.27 L 867.69 658.5699999999999 C 867.6626280167877 660.7595881100991 865.8797591849526 662.5201710815364 863.69 662.52 L 863.69 662.52 L 863.69 481.32 L 863.69 481.32 C 865.8797591849526 481.31982891846354 867.6626280167877 483.08041188990074 867.69 485.27 Z" stroke-linecap="round" />
</g>
<g transform="matrix(1 0 0 1 706.19 658.16)"  >
<path style="stroke: none; stroke-width: 1; stroke-dasharray: none; stroke-linecap: butt; stroke-dashoffset: 0; stroke-linejoin: miter; stroke-miterlimit: 4; fill: rgb(57,55,77); fill-rule: nonzero; opacity: 1;" vector-effect="non-scaling-stroke"  transform=" translate(-686.84, -395.27)" d="M 775.59 319.15 L 598.09 319.15 L 598.09 467.4 L 775.59 471.4 Z" stroke-linecap="round" />
</g>
<g transform="matrix(1 0 0 1 503.45 661.9)"  >
<path style="stroke: none; stroke-width: 1; stroke-dasharray: none; stroke-linecap: butt; stroke-dashoffset: 0; stroke-linejoin: miter; stroke-miterlimit: 4; fill: rgb(101,97,125); fill-rule: nonzero; opacity: 1;" vector-effect="non-scaling-stroke"  transform=" translate(-563.44, -571.92)" d="M 663.19 485.27 L 663.19 653.47 C 663.1648368304068 655.6024613391085 661.4711153445095 657.3401755908733 659.34 657.4200000000001 L 467.69000000000005 662.5200000000001 L 467.69000000000005 662.5200000000001 C 465.5002408150475 662.5201710815365 463.71737198321233 660.7595881100992 463.69000000000005 658.57 L 463.69000000000005 485.27 C 463.71696283814543 483.0997417211985 465.46974172119855 481.3469628381454 467.64000000000004 481.32 L 659.24 481.32 C 661.4102582788015 481.3469628381454 663.1630371618546 483.0997417211985 663.19 485.27 Z" stroke-linecap="round" />
</g>
<g transform="matrix(1 0 0 1 505.19 658.16)"  >
<path style="stroke: none; stroke-width: 1; stroke-dasharray: none; stroke-linecap: butt; stroke-dashoffset: 0; stroke-linejoin: miter; stroke-miterlimit: 4; fill: rgb(66,103,178); fill-rule: nonzero; opacity: 1;" vector-effect="non-scaling-stroke"  transform=" translate(-485.84, -395.27)" d="M 397.09 319.15 L 574.5899999999999 319.15 L 574.5899999999999 467.4 L 397.0899999999999 471.4 Z" stroke-linecap="round" />
</g>
<g transform="matrix(1 0 0 1 503.94 806.54)"  >
<path style="stroke: none; stroke-width: 1; stroke-dasharray: none; stroke-linecap: butt; stroke-dashoffset: 0; stroke-linejoin: miter; stroke-miterlimit: 4; fill: rgb(0,0,0); fill-rule: nonzero; opacity: 0.1;" vector-effect="non-scaling-stroke"  transform=" translate(-484.59, -543.65)" d="M 863.09 533.65 L 863.09 546.65 L 711.1700000000001 548.05 L 709.5500000000001 548.0799999999999 L 651.8100000000001 548.6099999999999 L 650.4300000000001 548.6299999999999 L 632.8800000000001 548.7799999999999 L 632.3600000000001 548.7799999999999 L 525.3800000000001 549.7699999999999 L 349.77 551.4 L 349.62 551.4 L 304.97 551.8199999999999 L 304.49 551.8299999999999 L 106.09 553.65 L 106.09 538.65 L 308.6 537.3199999999999 L 309.08000000000004 537.3199999999999 L 350.07000000000005 537.04 L 350.26000000000005 537.04 L 633.34 535.17 L 633.63 535.17 L 633.8 535.16 L 634.27 535.16 L 639.06 535.13 L 640.52 535.13 L 715.01 534.63 L 719.41 534.61 L 720.39 534.6 Z" stroke-linecap="round" />
</g>
<g transform="matrix(1 0 0 1 506.61 561.04)" id="Ellipse_111"  >
<circle style="stroke: none; stroke-width: 1; stroke-dasharray: none; stroke-linecap: butt; stroke-dashoffset: 0; stroke-linejoin: miter; stroke-miterlimit: 4; fill: rgb(251,190,190); fill-rule: nonzero; opacity: 1;" vector-effect="non-scaling-stroke"  cx="0" cy="0" r="51.33" />
</g>
<g transform="matrix(1 0 0 1 512.63 587.71)"  >
<path style="stroke: none; stroke-width: 1; stroke-dasharray: none; stroke-linecap: butt; stroke-dashoffset: 0; stroke-linejoin: miter; stroke-miterlimit: 4; fill: rgb(251,190,190); fill-rule: nonzero; opacity: 1;" vector-effect="non-scaling-stroke"  transform=" translate(-572.62, -497.72)" d="M 617.94 550.07 C 617.94 550.07 518.44 562.07 527.94 550.07 C 531.3800000000001 545.73 532.33 532.87 532.1400000000001 518.22 C 532.0800000000002 513.77 531.9200000000001 509.16 531.69 504.57000000000005 C 530.59 482.57000000000005 527.94 461.07000000000005 527.94 461.07000000000005 C 527.94 461.07000000000005 614.94 420.07000000000005 604.94 452.57000000000005 C 600.94 465.70000000000005 602.25 484.14000000000004 605.2900000000001 501.45000000000005 C 606.1800000000001 506.50000000000006 607.21 511.45000000000005 608.2900000000001 516.1500000000001 C 610.9257250617019 527.6139326360196 614.1466068972777 538.9354157306034 617.94 550.07 Z" stroke-linecap="round" />
</g>
<g transform="matrix(1 0 0 1 508.59 709.01)"  >
<path style="stroke: none; stroke-width: 1; stroke-dasharray: none; stroke-linecap: butt; stroke-dashoffset: 0; stroke-linejoin: miter; stroke-miterlimit: 4; fill: rgb(255,101,132); fill-rule: nonzero; opacity: 1;" vector-effect="non-scaling-stroke"  transform=" translate(-568.58, -619.02)" d="M 585.47 546 C 596.98 543.87 609.1700000000001 540 620 544.46 C 622.85 545.63 625.47 547.34 628.39 548.32 C 631.31 549.3000000000001 634.51 549.5400000000001 637.55 550.23 C 648.2299999999999 552.65 656.89 560.78 662.4499999999999 570.23 C 668.0099999999999 579.6800000000001 670.89 590.37 673.7099999999999 600.95 L 680.6099999999999 626.7800000000001 C 686.6099999999999 649.2300000000001 692.6099999999999 671.8700000000001 693.9999999999999 695.08 C 610.4666273938208 699.8615320424277 526.7424589501654 700.338830562897 443.1599999999996 696.5100000000003 C 448.59999999999985 686.17 454.15999999999985 675.2 453.6999999999999 663.51 C 453.2399999999999 651.8199999999999 446.5099999999999 640.29 448.9399999999999 628.77 C 450.4899999999999 621.43 455.5099999999999 615.38 458.57999999999987 608.55 C 467.32999999999987 589.03 460.51999999999987 562.76 475.89999999999986 547.9 C 482.8199999999999 541.22 492.89999999999986 538.6899999999999 502.52999999999986 539.01 C 514.8099999999998 539.42 527.3799999999999 543.25 539.5299999999999 545.12 C 555.09 547.48 569.79 548.88 585.47 546 Z" stroke-linecap="round" />
</g>
<g transform="matrix(1 0 0 1 512.69 775.47)"  >
<path style="stroke: none; stroke-width: 1; stroke-dasharray: none; stroke-linecap: butt; stroke-dashoffset: 0; stroke-linejoin: miter; stroke-miterlimit: 4; fill: rgb(0,0,0); fill-rule: nonzero; opacity: 0.1;" vector-effect="non-scaling-stroke"  transform=" translate(-572.68, -685.49)" d="M 716.37 657.17 L 716.27 658.5999999999999 L 716.27 658.6999999999999 L 716.1 660.9999999999999 L 714.77 679.5099999999999 L 713.16 701.8099999999998 L 712.6999999999999 708.0899999999998 L 711.6999999999999 721.5299999999999 L 711.6999999999999 721.6999999999998 L 604.6999999999999 722.6999999999998 L 429.1099999999999 724.5999999999998 L 429.1099999999999 725.4399999999998 L 428.9699999999999 725.4399999999998 L 428.9699999999999 724.3199999999998 L 429.4199999999999 709.9599999999998 L 430.2799999999999 681.8999999999999 L 431.0199999999999 658.1099999999999 L 431.0899999999999 655.7399999999999 C 431.17841850284134 652.8490251695949 432.4520875093275 650.1216963126795 434.61206445852423 648.1981441608993 C 436.7720414077209 646.2745920091191 439.6281378343656 645.324187551241 442.50999999999993 645.5699999999999 C 447.22999999999996 645.9699999999999 453.35999999999996 646.4599999999999 460.68999999999994 646.9799999999999 L 463.68999999999994 647.1999999999999 C 506.0199999999999 650.14 584.25 653.9399999999999 663.1899999999999 649.1999999999999 C 664.8499999999999 649.1099999999999 666.52 649.0099999999999 668.1899999999999 648.89 C 680.43 648.12 692.66 647.13 704.77 645.89 C 707.8690241726777 645.5653013295625 710.9527178718491 646.6298177670217 713.1914688977118 648.7971603549904 C 715.4302199235744 650.9645029429593 716.5941043304159 654.0120815167522 716.37 657.12 Z" stroke-linecap="round" />
</g>
<g transform="matrix(1 0 0 1 512.74 777.51)"  >
<path style="stroke: none; stroke-width: 1; stroke-dasharray: none; stroke-linecap: butt; stroke-dashoffset: 0; stroke-linejoin: miter; stroke-miterlimit: 4; fill: rgb(63,61,86); fill-rule: nonzero; opacity: 1;" vector-effect="non-scaling-stroke"  transform=" translate(-572.73, -687.52)" d="M 429.08 725.44 L 429.08 724.6 L 604.7 722.69 L 711.7 721.69 L 712 721.69 L 712 721.5200000000001 L 713 708.08 L 713.43 702.08 L 715.0699999999999 679.47 L 716.3599999999999 661.57 L 716.3599999999999 661.13 C 716.4196530535453 660.3051924336575 716.3827361269389 659.4762396271307 716.2499999999999 658.66 C 716.2555946811266 658.6269014200934 716.2555946811266 658.5930985799065 716.2499999999999 658.56 C 715.9752528679126 656.8723372105245 715.2882776873129 655.2785547915332 714.2499999999999 653.92 C 712.0114352692334 651.049413207815 708.4500648517801 649.5371540071977 704.8299999999999 649.92 C 692.7199999999999 651.16 680.4899999999999 652.15 668.2499999999999 652.92 C 666.5799999999999 653.04 664.9099999999999 653.14 663.2499999999999 653.2299999999999 C 584.31 657.92 506.0799999999999 654.1199999999999 463.7499999999999 651.2299999999999 L 460.7499999999999 651.0099999999999 C 453.4199999999999 650.4899999999999 447.2899999999999 650.0099999999999 442.5699999999999 649.5999999999999 C 437.19199407249204 649.1461867086947 432.340128729197 652.828251777939 431.32999999999987 658.1299999999999 C 431.22903055963025 658.6713899579166 431.16886136451274 659.2195981800988 431.14999999999986 659.7699999999999 L 430.46999999999986 681.9299999999998 L 429.54 710 L 429.1 724.36 L 429.1 725.48 Z" stroke-linecap="round" />
</g>
<g transform="matrix(1 0 0 1 512.91 780.82)"  >
<path style="stroke: none; stroke-width: 1; stroke-dasharray: none; stroke-linecap: butt; stroke-dashoffset: 0; stroke-linejoin: miter; stroke-miterlimit: 4; fill: rgb(0,0,0); fill-rule: nonzero; opacity: 0.1;" vector-effect="non-scaling-stroke"  transform=" translate(-572.9, -690.84)" d="M 716.67 664.18 L 715.4399999999999 679.51 L 713.6099999999999 702.36 L 713.1499999999999 708.08 L 712.1499999999999 720.89 L 712.0899999999999 721.53 L 712.0899999999999 721.6999999999999 L 712.0899999999999 721.6999999999999 L 711.9399999999999 723.18 L 712.05 721.6999999999999 L 711.76 721.6999999999999 L 604.76 722.6999999999999 L 429.11 724.5999999999999 L 429.11 724.3199999999999 L 429.6 709.9599999999999 L 430.6 681.9 L 431.24 663.25 C 431.30394084990763 661.0943843259198 432.4558767788959 659.11802366344 434.3 658 C 435.4323709968139 657.3059963007878 436.75637958903616 656.9907561597824 438.08 657.1 C 440.18 657.27 442.76 657.47 445.77 657.69 C 450.65999999999997 658.0500000000001 456.69 658.47 463.71 658.9100000000001 C 476.71 659.7300000000001 493.02 660.6100000000001 511.71 661.33 C 563.71 663.33 633.91 664 700.5899999999999 658.1600000000001 C 703.5899999999999 657.9000000000001 706.6899999999999 657.6100000000001 709.7199999999999 657.32 C 710.9193489186605 657.2003934340629 712.1277272410098 657.4295686331291 713.1999999999999 657.98 C 713.5037275132621 658.1312800957633 713.7917892951062 658.3121560983166 714.06 658.52 C 714.9305274574544 659.1507736169895 715.6201856162737 659.9990531523371 716.06 660.98 C 716.1620002895199 661.1751729106797 716.2456915597745 661.3793796101012 716.31 661.59 C 716.6104305707598 662.4185027112555 716.7330900235158 663.3009693296945 716.67 664.18 Z" stroke-linecap="round" />
</g>
<g transform="matrix(1 0 0 1 293.87 772.6)"  >
<path style="stroke: none; stroke-width: 1; stroke-dasharray: none; stroke-linecap: butt; stroke-dashoffset: 0; stroke-linejoin: miter; stroke-miterlimit: 4; fill: rgb(0,0,0); fill-rule: nonzero; opacity: 0.1;" vector-effect="non-scaling-stroke"  transform=" translate(-353.85, -682.62)" d="M 377.44 677.87 L 377.44 681.0600000000001 C 377.4411016983141 683.4276197266184 376.07863968920327 685.584202449611 373.94 686.6 L 333.84 687.37 C 331.6625140327906 686.3719526060003 330.26743434444074 684.195315669275 330.27 681.8 L 330.27 678.8 Z" stroke-linecap="round" />
</g>
<g transform="matrix(1 0 0 1 291.81 774.63)"  >
<path style="stroke: none; stroke-width: 1; stroke-dasharray: none; stroke-linecap: butt; stroke-dashoffset: 0; stroke-linejoin: miter; stroke-miterlimit: 4; fill: rgb(63,61,86); fill-rule: nonzero; opacity: 1;" vector-effect="non-scaling-stroke"  transform=" translate(-272.46, -511.74)" d="M 298.59 515.57 L 246.33999999999997 516.57 L 246.33999999999997 507.9 L 298.59 506.9 Z" stroke-linecap="round" />
</g>
<g transform="matrix(1 0 0 1 291.81 774.63)"  >
<path style="stroke: none; stroke-width: 1; stroke-dasharray: none; stroke-linecap: butt; stroke-dashoffset: 0; stroke-linejoin: miter; stroke-miterlimit: 4; fill: rgb(0,0,0); fill-rule: nonzero; opacity: 0.1;" vector-effect="non-scaling-stroke"  transform=" translate(-272.46, -511.74)" d="M 298.59 515.57 L 246.33999999999997 516.57 L 246.33999999999997 507.9 L 298.59 506.9 Z" stroke-linecap="round" />
</g>
<g transform="matrix(1 0 0 1 293.81 774.63)"  >
<path style="stroke: none; stroke-width: 1; stroke-dasharray: none; stroke-linecap: butt; stroke-dashoffset: 0; stroke-linejoin: miter; stroke-miterlimit: 4; fill: rgb(63,61,86); fill-rule: nonzero; opacity: 1;" vector-effect="non-scaling-stroke"  transform=" translate(-274.46, -511.74)" d="M 300.59 515.57 L 248.33999999999997 516.57 L 248.33999999999997 507.9 L 300.59 506.9 Z" stroke-linecap="round" />
</g>
<g transform="matrix(1 0 0 1 722.16 774.6)"  >
<path style="stroke: none; stroke-width: 1; stroke-dasharray: none; stroke-linecap: butt; stroke-dashoffset: 0; stroke-linejoin: miter; stroke-miterlimit: 4; fill: rgb(0,0,0); fill-rule: nonzero; opacity: 0.1;" vector-effect="non-scaling-stroke"  transform=" translate(-782.15, -684.62)" d="M 758.56 679.87 L 758.56 683.0600000000001 C 758.5588983016859 685.4276197266184 759.9213603107967 687.584202449611 762.06 688.6 L 802.16 689.37 C 804.3374859672093 688.3719526060003 805.7325656555593 686.195315669275 805.73 683.8 L 805.73 680.8 Z" stroke-linecap="round" />
</g>
<g transform="matrix(1 0 0 1 724.2 776.63)"  >
<path style="stroke: none; stroke-width: 1; stroke-dasharray: none; stroke-linecap: butt; stroke-dashoffset: 0; stroke-linejoin: miter; stroke-miterlimit: 4; fill: rgb(0,0,0); fill-rule: nonzero; opacity: 0.1;" vector-effect="non-scaling-stroke"  transform=" translate(-704.85, -513.74)" d="M 678.72 517.57 L 730.97 518.57 L 730.97 509.9 L 678.72 508.9 Z" stroke-linecap="round" />
</g>
<g transform="matrix(1 0 0 1 722.2 776.63)"  >
<path style="stroke: none; stroke-width: 1; stroke-dasharray: none; stroke-linecap: butt; stroke-dashoffset: 0; stroke-linejoin: miter; stroke-miterlimit: 4; fill: rgb(63,61,86); fill-rule: nonzero; opacity: 1;" vector-effect="non-scaling-stroke"  transform=" translate(-702.85, -513.74)" d="M 676.72 517.57 L 728.97 518.57 L 728.97 509.9 L 676.72 508.9 Z" stroke-linecap="round" />
</g>
<g transform="matrix(1 0 0 1 512.55 618.68)"  >
<path style="stroke: none; stroke-width: 1; stroke-dasharray: none; stroke-linecap: butt; stroke-dashoffset: 0; stroke-linejoin: miter; stroke-miterlimit: 4; fill: rgb(63,61,86); fill-rule: nonzero; opacity: 1;" vector-effect="non-scaling-stroke"  transform=" translate(-572.54, -528.69)" d="M 534.13 486.79 C 534.21 493.79 530.97 500.39000000000004 528.22 506.86 C 518.2074784793656 530.4282506754989 513.8710146448657 556.0188678220618 515.5600000000001 581.5699999999999 C 516.2900000000001 592.57 518.1400000000001 603.57 516.2900000000001 614.47 C 514.44 625.37 507.86000000000007 636.24 497.2900000000001 639.37 C 514.82 649.82 538.5500000000001 648.72 555.0500000000001 636.71 C 563.84 630.3100000000001 570.3900000000001 621.38 576.8000000000001 612.6 C 576.0386741392767 628.3720387842018 571.4720547674534 643.7256238247049 563.4900000000001 657.35 C 592.6681158999475 654.7665495564053 619.3824581123189 639.9321127572077 637 616.53 C 641.31 610.72 645.06 604.3399999999999 646.72 597.3 C 649.8100000000001 584.3 645.5 570.79 642.21 557.8 C 639.4606808534437 546.9408569246832 637.3999126443725 535.9189199879978 636.04 524.8 C 635.6100000000001 521.24 635.2600000000001 517.5799999999999 636.1400000000001 514.0999999999999 C 637.1400000000001 510.0299999999999 639.8100000000001 506.5899999999999 641.7800000000001 502.8799999999999 C 647.3800000000001 492.33999999999986 647.5100000000001 479.57999999999987 644.6400000000001 467.9999999999999 C 641.7700000000001 456.4199999999999 636.1500000000001 445.7399999999999 630.5800000000002 435.1899999999999 C 626.1200000000001 426.7299999999999 621.2800000000002 417.8799999999999 613.1200000000001 412.90999999999985 C 608.0200000000001 409.80999999999983 602.1200000000001 408.51999999999987 596.2400000000001 407.26999999999987 L 570.8700000000001 401.83999999999986 C 565.3200000000002 400.64999999999986 559.6100000000001 399.45999999999987 554.0000000000001 400.32999999999987 C 544.5300000000001 401.8099999999999 537.8600000000001 408.64999999999986 532.0000000000001 415.66999999999985 C 527.4100000000001 421.1299999999998 516.1900000000002 431.3799999999998 515.4000000000001 438.52999999999986 C 514.6800000000001 445.11999999999983 520.5000000000001 456.15999999999985 521.4900000000001 463.10999999999984 C 522.7900000000001 472.10999999999984 523.7100000000002 469.10999999999984 528.7900000000001 474.6299999999998 C 532 478.05 534.07 482 534.13 486.79 Z" stroke-linecap="round" />
</g>
<g transform="matrix(0.97 -0.26 0.26 0.97 314.41 668.21)" id="Rectangle_4"  >
<rect style="stroke: none; stroke-width: 1; stroke-dasharray: none; stroke-linecap: butt; stroke-dashoffset: 0; stroke-linejoin: miter; stroke-miterlimit: 4; fill: rgb(74,74,74); fill-rule: nonzero; opacity: 1;" vector-effect="non-scaling-stroke"  x="-1.27" y="-1.27" rx="1" ry="1" width="2.54" height="2.54" />
</g>
<g transform="matrix(0.97 -0.26 0.26 0.97 317.32 667.43)" id="Rectangle_5"  >
<rect style="stroke: none; stroke-width: 1; stroke-dasharray: none; stroke-linecap: butt; stroke-dashoffset: 0; stroke-linejoin: miter; stroke-miterlimit: 4; fill: rgb(74,74,74); fill-rule: nonzero; opacity: 1;" vector-effect="non-scaling-stroke"  x="-1.27" y="-1.27" rx="1" ry="1" width="2.54" height="2.54" />
</g>
<g transform="matrix(0.97 -0.26 0.26 0.97 320.22 666.66)" id="Rectangle_6"  >
<rect style="stroke: none; stroke-width: 1; stroke-dasharray: none; stroke-linecap: butt; stroke-dashoffset: 0; stroke-linejoin: miter; stroke-miterlimit: 4; fill: rgb(74,74,74); fill-rule: nonzero; opacity: 1;" vector-effect="non-scaling-stroke"  x="-1.27" y="-1.27" rx="1" ry="1" width="2.54" height="2.54" />
</g>
<g transform="matrix(0.97 -0.26 0.26 0.97 323.13 665.88)" id="Rectangle_7"  >
<rect style="stroke: none; stroke-width: 1; stroke-dasharray: none; stroke-linecap: butt; stroke-dashoffset: 0; stroke-linejoin: miter; stroke-miterlimit: 4; fill: rgb(74,74,74); fill-rule: nonzero; opacity: 1;" vector-effect="non-scaling-stroke"  x="-1.27" y="-1.27" rx="1" ry="1" width="2.54" height="2.54" />
</g>
<g transform="matrix(0.97 -0.26 0.26 0.97 305.58 664.3)"  >
<path style="stroke: none; stroke-width: 1; stroke-dasharray: none; stroke-linecap: butt; stroke-dashoffset: 0; stroke-linejoin: miter; stroke-miterlimit: 4; fill: rgb(74,74,74); fill-rule: evenodd; opacity: 1;" vector-effect="non-scaling-stroke"  transform=" translate(-1.74, -1.27)" d="M 0.519 0 L 2.956 0 C 3.093647358226723 0 3.225657039021288 0.05468020014965175 3.322988419435818 0.15201158056418174 C 3.4203197998503483 0.24934296097871173 3.475 0.38135264177327655 3.475 0.5189999999999999 L 3.475 2.019 C 3.475 2.1566473582267234 3.4203197998503483 2.288657039021288 3.322988419435818 2.3859884194358183 C 3.2256570390212884 2.4833197998503485 3.0936473582267237 2.5380000000000003 2.9560000000000004 2.5380000000000003 L 0.519 2.5380000000000003 C 0.38100541783816066 2.538001024610812 0.24869173677005318 2.4830463671267693 0.15130265993078584 2.3852819951937088 C 0.0539135830915185 2.2875176232606487 -0.0005317710333438974 2.154993557554832 0 2.0170000000000003 L 0 0.519 C 0 0.23236421483781822 0.2323642148378181 -1.1102230246251565e-16 0.5189999999999999 -1.1102230246251565e-16 Z" stroke-linecap="round" />
</g>
<g transform="matrix(0.97 -0.26 0.26 0.97 308.94 663.4)" id="Rectangle_13"  >
<rect style="stroke: none; stroke-width: 1; stroke-dasharray: none; stroke-linecap: butt; stroke-dashoffset: 0; stroke-linejoin: miter; stroke-miterlimit: 4; fill: rgb(74,74,74); fill-rule: nonzero; opacity: 1;" vector-effect="non-scaling-stroke"  x="-1.27" y="-1.27" rx="1" ry="1" width="2.54" height="2.54" />
</g>
<g transform="matrix(0.97 -0.26 0.26 0.97 311.84 662.62)" id="Rectangle_14"  >
<rect style="stroke: none; stroke-width: 1; stroke-dasharray: none; stroke-linecap: butt; stroke-dashoffset: 0; stroke-linejoin: miter; stroke-miterlimit: 4; fill: rgb(74,74,74); fill-rule: nonzero; opacity: 1;" vector-effect="non-scaling-stroke"  x="-1.27" y="-1.27" rx="1" ry="1" width="2.54" height="2.54" />
</g>
<g transform="matrix(0.97 -0.26 0.26 0.97 314.75 661.84)" id="Rectangle_15"  >
<rect style="stroke: none; stroke-width: 1; stroke-dasharray: none; stroke-linecap: butt; stroke-dashoffset: 0; stroke-linejoin: miter; stroke-miterlimit: 4; fill: rgb(74,74,74); fill-rule: nonzero; opacity: 1;" vector-effect="non-scaling-stroke"  x="-1.27" y="-1.27" rx="1" ry="1" width="2.54" height="2.54" />
</g>
<g transform="matrix(0.97 -0.26 0.26 0.97 317.65 661.06)" id="Rectangle_16"  >
<rect style="stroke: none; stroke-width: 1; stroke-dasharray: none; stroke-linecap: butt; stroke-dashoffset: 0; stroke-linejoin: miter; stroke-miterlimit: 4; fill: rgb(74,74,74); fill-rule: nonzero; opacity: 1;" vector-effect="non-scaling-stroke"  x="-1.27" y="-1.27" rx="1" ry="1" width="2.54" height="2.54" />
</g>
<g transform="matrix(0.97 -0.26 0.26 0.97 320.56 660.28)" id="Rectangle_17"  >
<rect style="stroke: none; stroke-width: 1; stroke-dasharray: none; stroke-linecap: butt; stroke-dashoffset: 0; stroke-linejoin: miter; stroke-miterlimit: 4; fill: rgb(74,74,74); fill-rule: nonzero; opacity: 1;" vector-effect="non-scaling-stroke"  x="-1.27" y="-1.27" rx="1" ry="1" width="2.54" height="2.54" />
</g>
<g transform="matrix(0.97 -0.26 0.26 0.97 323.46 659.5)" id="Rectangle_18"  >
<rect style="stroke: none; stroke-width: 1; stroke-dasharray: none; stroke-linecap: butt; stroke-dashoffset: 0; stroke-linejoin: miter; stroke-miterlimit: 4; fill: rgb(74,74,74); fill-rule: nonzero; opacity: 1;" vector-effect="non-scaling-stroke"  x="-1.27" y="-1.27" rx="1" ry="1" width="2.54" height="2.54" />
</g>
<g transform="matrix(0.97 -0.26 0.26 0.97 326.36 658.72)" id="Rectangle_19"  >
<rect style="stroke: none; stroke-width: 1; stroke-dasharray: none; stroke-linecap: butt; stroke-dashoffset: 0; stroke-linejoin: miter; stroke-miterlimit: 4; fill: rgb(74,74,74); fill-rule: nonzero; opacity: 1;" vector-effect="non-scaling-stroke"  x="-1.27" y="-1.27" rx="1" ry="1" width="2.54" height="2.54" />
</g>
<g transform="matrix(0.97 -0.26 0.26 0.97 329.27 657.95)" id="Rectangle_20"  >
<rect style="stroke: none; stroke-width: 1; stroke-dasharray: none; stroke-linecap: butt; stroke-dashoffset: 0; stroke-linejoin: miter; stroke-miterlimit: 4; fill: rgb(74,74,74); fill-rule: nonzero; opacity: 1;" vector-effect="non-scaling-stroke"  x="-1.27" y="-1.27" rx="1" ry="1" width="2.54" height="2.54" />
</g>
<g transform="matrix(0.97 -0.26 0.26 0.97 332.17 657.17)" id="Rectangle_21"  >
<rect style="stroke: none; stroke-width: 1; stroke-dasharray: none; stroke-linecap: butt; stroke-dashoffset: 0; stroke-linejoin: miter; stroke-miterlimit: 4; fill: rgb(74,74,74); fill-rule: nonzero; opacity: 1;" vector-effect="non-scaling-stroke"  x="-1.27" y="-1.27" rx="1" ry="1" width="2.54" height="2.54" />
</g>
<g transform="matrix(0.97 -0.26 0.26 0.97 335.07 656.39)" id="Rectangle_22"  >
<rect style="stroke: none; stroke-width: 1; stroke-dasharray: none; stroke-linecap: butt; stroke-dashoffset: 0; stroke-linejoin: miter; stroke-miterlimit: 4; fill: rgb(74,74,74); fill-rule: nonzero; opacity: 1;" vector-effect="non-scaling-stroke"  x="-1.27" y="-1.27" rx="1" ry="1" width="2.54" height="2.54" />
</g>
<g transform="matrix(0.97 -0.26 0.26 0.97 337.98 655.61)" id="Rectangle_23"  >
<rect style="stroke: none; stroke-width: 1; stroke-dasharray: none; stroke-linecap: butt; stroke-dashoffset: 0; stroke-linejoin: miter; stroke-miterlimit: 4; fill: rgb(74,74,74); fill-rule: nonzero; opacity: 1;" vector-effect="non-scaling-stroke"  x="-1.27" y="-1.27" rx="1" ry="1" width="2.54" height="2.54" />
</g>
<g transform="matrix(0.97 -0.26 0.26 0.97 340.88 654.83)" id="Rectangle_24"  >
<rect style="stroke: none; stroke-width: 1; stroke-dasharray: none; stroke-linecap: butt; stroke-dashoffset: 0; stroke-linejoin: miter; stroke-miterlimit: 4; fill: rgb(74,74,74); fill-rule: nonzero; opacity: 1;" vector-effect="non-scaling-stroke"  x="-1.27" y="-1.27" rx="1" ry="1" width="2.54" height="2.54" />
</g>
<g transform="matrix(0.97 -0.26 0.26 0.97 343.79 654.05)" id="Rectangle_25"  >
<rect style="stroke: none; stroke-width: 1; stroke-dasharray: none; stroke-linecap: butt; stroke-dashoffset: 0; stroke-linejoin: miter; stroke-miterlimit: 4; fill: rgb(74,74,74); fill-rule: nonzero; opacity: 1;" vector-effect="non-scaling-stroke"  x="-1.27" y="-1.27" rx="1" ry="1" width="2.54" height="2.54" />
</g>
<g transform="matrix(-0.97 0.26 -0.26 -0.97 342.58 651.39)"  >
<path style="stroke: none; stroke-width: 1; stroke-dasharray: none; stroke-linecap: butt; stroke-dashoffset: 0; stroke-linejoin: miter; stroke-miterlimit: 4; fill: rgb(74,74,74); fill-rule: evenodd; opacity: 1;" vector-effect="non-scaling-stroke"  transform=" translate(-1.74, -1.27)" d="M 0.519 0 L 2.956 0 C 3.093647358226723 0 3.225657039021288 0.05468020014965175 3.322988419435818 0.15201158056418174 C 3.4203197998503483 0.24934296097871173 3.475 0.38135264177327655 3.475 0.5189999999999999 L 3.475 2.019 C 3.475 2.1566473582267234 3.4203197998503483 2.288657039021288 3.322988419435818 2.3859884194358183 C 3.2256570390212884 2.4833197998503485 3.0936473582267237 2.5380000000000003 2.9560000000000004 2.5380000000000003 L 0.519 2.5380000000000003 C 0.38100541783816066 2.538001024610812 0.24869173677005318 2.4830463671267693 0.15130265993078584 2.3852819951937088 C 0.0539135830915185 2.2875176232606487 -0.0005317710333438974 2.154993557554832 0 2.0170000000000003 L 0 0.519 C 0 0.23236421483781822 0.2323642148378181 -1.1102230246251565e-16 0.5189999999999999 -1.1102230246251565e-16 Z" stroke-linecap="round" />
</g>
<g transform="matrix(-0.97 0.26 -0.26 -0.97 339.22 652.3)" id="Rectangle_26"  >
<rect style="stroke: none; stroke-width: 1; stroke-dasharray: none; stroke-linecap: butt; stroke-dashoffset: 0; stroke-linejoin: miter; stroke-miterlimit: 4; fill: rgb(74,74,74); fill-rule: nonzero; opacity: 1;" vector-effect="non-scaling-stroke"  x="-1.27" y="-1.27" rx="1" ry="1" width="2.54" height="2.54" />
</g>
<g transform="matrix(-0.97 0.26 -0.26 -0.97 336.32 653.07)" id="Rectangle_27"  >
<rect style="stroke: none; stroke-width: 1; stroke-dasharray: none; stroke-linecap: butt; stroke-dashoffset: 0; stroke-linejoin: miter; stroke-miterlimit: 4; fill: rgb(74,74,74); fill-rule: nonzero; opacity: 1;" vector-effect="non-scaling-stroke"  x="-1.27" y="-1.27" rx="1" ry="1" width="2.54" height="2.54" />
</g>
<g transform="matrix(-0.97 0.26 -0.26 -0.97 333.41 653.85)" id="Rectangle_28"  >
<rect style="stroke: none; stroke-width: 1; stroke-dasharray: none; stroke-linecap: butt; stroke-dashoffset: 0; stroke-linejoin: miter; stroke-miterlimit: 4; fill: rgb(74,74,74); fill-rule: nonzero; opacity: 1;" vector-effect="non-scaling-stroke"  x="-1.27" y="-1.27" rx="1" ry="1" width="2.54" height="2.54" />
</g>
<g transform="matrix(-0.97 0.26 -0.26 -0.97 330.51 654.63)" id="Rectangle_29"  >
<rect style="stroke: none; stroke-width: 1; stroke-dasharray: none; stroke-linecap: butt; stroke-dashoffset: 0; stroke-linejoin: miter; stroke-miterlimit: 4; fill: rgb(74,74,74); fill-rule: nonzero; opacity: 1;" vector-effect="non-scaling-stroke"  x="-1.27" y="-1.27" rx="1" ry="1" width="2.54" height="2.54" />
</g>
<g transform="matrix(-0.97 0.26 -0.26 -0.97 327.61 655.41)" id="Rectangle_30"  >
<rect style="stroke: none; stroke-width: 1; stroke-dasharray: none; stroke-linecap: butt; stroke-dashoffset: 0; stroke-linejoin: miter; stroke-miterlimit: 4; fill: rgb(74,74,74); fill-rule: nonzero; opacity: 1;" vector-effect="non-scaling-stroke"  x="-1.27" y="-1.27" rx="1" ry="1" width="2.54" height="2.54" />
</g>
<g transform="matrix(-0.97 0.26 -0.26 -0.97 324.7 656.19)" id="Rectangle_31"  >
<rect style="stroke: none; stroke-width: 1; stroke-dasharray: none; stroke-linecap: butt; stroke-dashoffset: 0; stroke-linejoin: miter; stroke-miterlimit: 4; fill: rgb(74,74,74); fill-rule: nonzero; opacity: 1;" vector-effect="non-scaling-stroke"  x="-1.27" y="-1.27" rx="1" ry="1" width="2.54" height="2.54" />
</g>
<g transform="matrix(-0.97 0.26 -0.26 -0.97 321.8 656.97)" id="Rectangle_32"  >
<rect style="stroke: none; stroke-width: 1; stroke-dasharray: none; stroke-linecap: butt; stroke-dashoffset: 0; stroke-linejoin: miter; stroke-miterlimit: 4; fill: rgb(74,74,74); fill-rule: nonzero; opacity: 1;" vector-effect="non-scaling-stroke"  x="-1.27" y="-1.27" rx="1" ry="1" width="2.54" height="2.54" />
</g>
<g transform="matrix(-0.97 0.26 -0.26 -0.97 318.89 657.75)" id="Rectangle_33"  >
<rect style="stroke: none; stroke-width: 1; stroke-dasharray: none; stroke-linecap: butt; stroke-dashoffset: 0; stroke-linejoin: miter; stroke-miterlimit: 4; fill: rgb(74,74,74); fill-rule: nonzero; opacity: 1;" vector-effect="non-scaling-stroke"  x="-1.27" y="-1.27" rx="1" ry="1" width="2.54" height="2.54" />
</g>
<g transform="matrix(-0.97 0.26 -0.26 -0.97 315.99 658.52)" id="Rectangle_34"  >
<rect style="stroke: none; stroke-width: 1; stroke-dasharray: none; stroke-linecap: butt; stroke-dashoffset: 0; stroke-linejoin: miter; stroke-miterlimit: 4; fill: rgb(74,74,74); fill-rule: nonzero; opacity: 1;" vector-effect="non-scaling-stroke"  x="-1.27" y="-1.27" rx="1" ry="1" width="2.54" height="2.54" />
</g>
<g transform="matrix(-0.97 0.26 -0.26 -0.97 313.09 659.3)" id="Rectangle_35"  >
<rect style="stroke: none; stroke-width: 1; stroke-dasharray: none; stroke-linecap: butt; stroke-dashoffset: 0; stroke-linejoin: miter; stroke-miterlimit: 4; fill: rgb(74,74,74); fill-rule: nonzero; opacity: 1;" vector-effect="non-scaling-stroke"  x="-1.27" y="-1.27" rx="1" ry="1" width="2.54" height="2.54" />
</g>
<g transform="matrix(-0.97 0.26 -0.26 -0.97 310.18 660.08)" id="Rectangle_36"  >
<rect style="stroke: none; stroke-width: 1; stroke-dasharray: none; stroke-linecap: butt; stroke-dashoffset: 0; stroke-linejoin: miter; stroke-miterlimit: 4; fill: rgb(74,74,74); fill-rule: nonzero; opacity: 1;" vector-effect="non-scaling-stroke"  x="-1.27" y="-1.27" rx="1" ry="1" width="2.54" height="2.54" />
</g>
<g transform="matrix(-0.97 0.26 -0.26 -0.97 307.28 660.86)" id="Rectangle_37"  >
<rect style="stroke: none; stroke-width: 1; stroke-dasharray: none; stroke-linecap: butt; stroke-dashoffset: 0; stroke-linejoin: miter; stroke-miterlimit: 4; fill: rgb(74,74,74); fill-rule: nonzero; opacity: 1;" vector-effect="non-scaling-stroke"  x="-1.27" y="-1.27" rx="1" ry="1" width="2.54" height="2.54" />
</g>
<g transform="matrix(-0.97 0.26 -0.26 -0.97 304.38 661.64)" id="Rectangle_38"  >
<rect style="stroke: none; stroke-width: 1; stroke-dasharray: none; stroke-linecap: butt; stroke-dashoffset: 0; stroke-linejoin: miter; stroke-miterlimit: 4; fill: rgb(74,74,74); fill-rule: nonzero; opacity: 1;" vector-effect="non-scaling-stroke"  x="-1.27" y="-1.27" rx="1" ry="1" width="2.54" height="2.54" />
</g>
<g transform="matrix(-0.97 0.26 -0.26 -0.97 339.22 652.3)" id="Rectangle_39"  >
<rect style="stroke: none; stroke-width: 1; stroke-dasharray: none; stroke-linecap: butt; stroke-dashoffset: 0; stroke-linejoin: miter; stroke-miterlimit: 4; fill: rgb(74,74,74); fill-rule: nonzero; opacity: 1;" vector-effect="non-scaling-stroke"  x="-1.27" y="-1.27" rx="1" ry="1" width="2.54" height="2.54" />
</g>
<g transform="matrix(-0.97 0.26 -0.26 -0.97 336.32 653.07)" id="Rectangle_40"  >
<rect style="stroke: none; stroke-width: 1; stroke-dasharray: none; stroke-linecap: butt; stroke-dashoffset: 0; stroke-linejoin: miter; stroke-miterlimit: 4; fill: rgb(74,74,74); fill-rule: nonzero; opacity: 1;" vector-effect="non-scaling-stroke"  x="-1.27" y="-1.27" rx="1" ry="1" width="2.54" height="2.54" />
</g>
<g transform="matrix(-0.97 0.26 -0.26 -0.97 333.41 653.85)" id="Rectangle_41"  >
<rect style="stroke: none; stroke-width: 1; stroke-dasharray: none; stroke-linecap: butt; stroke-dashoffset: 0; stroke-linejoin: miter; stroke-miterlimit: 4; fill: rgb(74,74,74); fill-rule: nonzero; opacity: 1;" vector-effect="non-scaling-stroke"  x="-1.27" y="-1.27" rx="1" ry="1" width="2.54" height="2.54" />
</g>
<g transform="matrix(-0.97 0.26 -0.26 -0.97 330.51 654.63)" id="Rectangle_42"  >
<rect style="stroke: none; stroke-width: 1; stroke-dasharray: none; stroke-linecap: butt; stroke-dashoffset: 0; stroke-linejoin: miter; stroke-miterlimit: 4; fill: rgb(74,74,74); fill-rule: nonzero; opacity: 1;" vector-effect="non-scaling-stroke"  x="-1.27" y="-1.27" rx="1" ry="1" width="2.54" height="2.54" />
</g>
<g transform="matrix(-0.97 0.26 -0.26 -0.97 327.61 655.41)" id="Rectangle_43"  >
<rect style="stroke: none; stroke-width: 1; stroke-dasharray: none; stroke-linecap: butt; stroke-dashoffset: 0; stroke-linejoin: miter; stroke-miterlimit: 4; fill: rgb(74,74,74); fill-rule: nonzero; opacity: 1;" vector-effect="non-scaling-stroke"  x="-1.27" y="-1.27" rx="1" ry="1" width="2.54" height="2.54" />
</g>
<g transform="matrix(-0.97 0.26 -0.26 -0.97 324.7 656.19)" id="Rectangle_44"  >
<rect style="stroke: none; stroke-width: 1; stroke-dasharray: none; stroke-linecap: butt; stroke-dashoffset: 0; stroke-linejoin: miter; stroke-miterlimit: 4; fill: rgb(74,74,74); fill-rule: nonzero; opacity: 1;" vector-effect="non-scaling-stroke"  x="-1.27" y="-1.27" rx="1" ry="1" width="2.54" height="2.54" />
</g>
<g transform="matrix(-0.97 0.26 -0.26 -0.97 321.8 656.97)" id="Rectangle_45"  >
<rect style="stroke: none; stroke-width: 1; stroke-dasharray: none; stroke-linecap: butt; stroke-dashoffset: 0; stroke-linejoin: miter; stroke-miterlimit: 4; fill: rgb(74,74,74); fill-rule: nonzero; opacity: 1;" vector-effect="non-scaling-stroke"  x="-1.27" y="-1.27" rx="1" ry="1" width="2.54" height="2.54" />
</g>
<g transform="matrix(-0.97 0.26 -0.26 -0.97 318.89 657.75)" id="Rectangle_46"  >
<rect style="stroke: none; stroke-width: 1; stroke-dasharray: none; stroke-linecap: butt; stroke-dashoffset: 0; stroke-linejoin: miter; stroke-miterlimit: 4; fill: rgb(74,74,74); fill-rule: nonzero; opacity: 1;" vector-effect="non-scaling-stroke"  x="-1.27" y="-1.27" rx="1" ry="1" width="2.54" height="2.54" />
</g>
<g transform="matrix(-0.97 0.26 -0.26 -0.97 315.99 658.52)" id="Rectangle_47"  >
<rect style="stroke: none; stroke-width: 1; stroke-dasharray: none; stroke-linecap: butt; stroke-dashoffset: 0; stroke-linejoin: miter; stroke-miterlimit: 4; fill: rgb(74,74,74); fill-rule: nonzero; opacity: 1;" vector-effect="non-scaling-stroke"  x="-1.27" y="-1.27" rx="1" ry="1" width="2.54" height="2.54" />
</g>
<g transform="matrix(-0.97 0.26 -0.26 -0.97 313.09 659.3)" id="Rectangle_48"  >
<rect style="stroke: none; stroke-width: 1; stroke-dasharray: none; stroke-linecap: butt; stroke-dashoffset: 0; stroke-linejoin: miter; stroke-miterlimit: 4; fill: rgb(74,74,74); fill-rule: nonzero; opacity: 1;" vector-effect="non-scaling-stroke"  x="-1.27" y="-1.27" rx="1" ry="1" width="2.54" height="2.54" />
</g>
<g transform="matrix(-0.97 0.26 -0.26 -0.97 310.18 660.08)" id="Rectangle_49"  >
<rect style="stroke: none; stroke-width: 1; stroke-dasharray: none; stroke-linecap: butt; stroke-dashoffset: 0; stroke-linejoin: miter; stroke-miterlimit: 4; fill: rgb(74,74,74); fill-rule: nonzero; opacity: 1;" vector-effect="non-scaling-stroke"  x="-1.27" y="-1.27" rx="1" ry="1" width="2.54" height="2.54" />
</g>
<g transform="matrix(-0.97 0.26 -0.26 -0.97 307.28 660.86)" id="Rectangle_50"  >
<rect style="stroke: none; stroke-width: 1; stroke-dasharray: none; stroke-linecap: butt; stroke-dashoffset: 0; stroke-linejoin: miter; stroke-miterlimit: 4; fill: rgb(74,74,74); fill-rule: nonzero; opacity: 1;" vector-effect="non-scaling-stroke"  x="-1.27" y="-1.27" rx="1" ry="1" width="2.54" height="2.54" />
</g>
<g transform="matrix(-0.97 0.26 -0.26 -0.97 304.38 661.64)" id="Rectangle_51"  >
<rect style="stroke: none; stroke-width: 1; stroke-dasharray: none; stroke-linecap: butt; stroke-dashoffset: 0; stroke-linejoin: miter; stroke-miterlimit: 4; fill: rgb(74,74,74); fill-rule: nonzero; opacity: 1;" vector-effect="non-scaling-stroke"  x="-1.27" y="-1.27" rx="1" ry="1" width="2.54" height="2.54" />
</g>
<g transform="matrix(0.97 -0.26 0.26 0.97 306.86 667.07)"  >
<path style="stroke: none; stroke-width: 1; stroke-dasharray: none; stroke-linecap: butt; stroke-dashoffset: 0; stroke-linejoin: miter; stroke-miterlimit: 4; fill: rgb(74,74,74); fill-rule: evenodd; opacity: 1;" vector-effect="non-scaling-stroke"  transform=" translate(-2.25, -1.27)" d="M 0.519 0 L 3.9890000000000003 0 C 4.275635785162182 0 4.508 0.2323642148378181 4.508 0.5189999999999998 L 4.508 2.019 C 4.508 2.1566473582267234 4.453319799850348 2.288657039021288 4.3559884194358185 2.3859884194358183 C 4.258657039021288 2.4833197998503485 4.126647358226723 2.5380000000000003 3.989 2.5380000000000003 L 0.519 2.5380000000000003 C 0.38100541783816066 2.538001024610812 0.24869173677005318 2.4830463671267693 0.15130265993078584 2.3852819951937088 C 0.0539135830915185 2.2875176232606487 -0.0005317710333438974 2.154993557554832 0 2.0170000000000003 L 0 0.52 C -0.00026555066419566486 0.38217946123508284 0.054297396828242195 0.24991273272575093 0.15165757420484666 0.15236496348522227 C 0.24901775158145112 0.05481719424469361 0.38117920540592587 -2.558293937804379e-7 0.5189999999999996 0 Z" stroke-linecap="round" />
</g>
<g transform="matrix(0.97 -0.26 0.26 0.97 310.81 666.01)" id="Rectangle_52"  >
<rect style="stroke: none; stroke-width: 1; stroke-dasharray: none; stroke-linecap: butt; stroke-dashoffset: 0; stroke-linejoin: miter; stroke-miterlimit: 4; fill: rgb(74,74,74); fill-rule: nonzero; opacity: 1;" vector-effect="non-scaling-stroke"  x="-1.27" y="-1.27" rx="1" ry="1" width="2.54" height="2.54" />
</g>
<g transform="matrix(0.97 -0.26 0.26 0.97 313.71 665.23)" id="Rectangle_53"  >
<rect style="stroke: none; stroke-width: 1; stroke-dasharray: none; stroke-linecap: butt; stroke-dashoffset: 0; stroke-linejoin: miter; stroke-miterlimit: 4; fill: rgb(74,74,74); fill-rule: nonzero; opacity: 1;" vector-effect="non-scaling-stroke"  x="-1.27" y="-1.27" rx="1" ry="1" width="2.54" height="2.54" />
</g>
<g transform="matrix(0.97 -0.26 0.26 0.97 316.61 664.45)" id="Rectangle_54"  >
<rect style="stroke: none; stroke-width: 1; stroke-dasharray: none; stroke-linecap: butt; stroke-dashoffset: 0; stroke-linejoin: miter; stroke-miterlimit: 4; fill: rgb(74,74,74); fill-rule: nonzero; opacity: 1;" vector-effect="non-scaling-stroke"  x="-1.27" y="-1.27" rx="1" ry="1" width="2.54" height="2.54" />
</g>
<g transform="matrix(0.97 -0.26 0.26 0.97 319.52 663.67)" id="Rectangle_55"  >
<rect style="stroke: none; stroke-width: 1; stroke-dasharray: none; stroke-linecap: butt; stroke-dashoffset: 0; stroke-linejoin: miter; stroke-miterlimit: 4; fill: rgb(74,74,74); fill-rule: nonzero; opacity: 1;" vector-effect="non-scaling-stroke"  x="-1.27" y="-1.27" rx="1" ry="1" width="2.54" height="2.54" />
</g>
<g transform="matrix(0.97 -0.26 0.26 0.97 322.42 662.89)" id="Rectangle_56"  >
<rect style="stroke: none; stroke-width: 1; stroke-dasharray: none; stroke-linecap: butt; stroke-dashoffset: 0; stroke-linejoin: miter; stroke-miterlimit: 4; fill: rgb(74,74,74); fill-rule: nonzero; opacity: 1;" vector-effect="non-scaling-stroke"  x="-1.27" y="-1.27" rx="1" ry="1" width="2.54" height="2.54" />
</g>
<g transform="matrix(0.97 -0.26 0.26 0.97 323.19 654.37)" id="Rectangle_70"  >
<rect style="stroke: none; stroke-width: 1; stroke-dasharray: none; stroke-linecap: butt; stroke-dashoffset: 0; stroke-linejoin: miter; stroke-miterlimit: 4; fill: rgb(74,74,74); fill-rule: nonzero; opacity: 1;" vector-effect="non-scaling-stroke"  x="-21.135" y="-0.565" rx="0.564" ry="0.564" width="42.27" height="1.13" />
</g>
<g transform="matrix(0.97 -0.26 0.26 0.97 304.92 659.27)" id="Rectangle_71"  >
<rect style="stroke: none; stroke-width: 1; stroke-dasharray: none; stroke-linecap: butt; stroke-dashoffset: 0; stroke-linejoin: miter; stroke-miterlimit: 4; fill: rgb(216,216,216); fill-rule: nonzero; opacity: 0.14;" vector-effect="non-scaling-stroke"  x="-1.185" y="-0.375" rx="0.376" ry="0.376" width="2.37" height="0.75" />
</g>
<g transform="matrix(0.97 -0.26 0.26 0.97 308.05 658.43)" id="Rectangle_72"  >
<rect style="stroke: none; stroke-width: 1; stroke-dasharray: none; stroke-linecap: butt; stroke-dashoffset: 0; stroke-linejoin: miter; stroke-miterlimit: 4; fill: rgb(216,216,216); fill-rule: nonzero; opacity: 0.14;" vector-effect="non-scaling-stroke"  x="-1.185" y="-0.375" rx="0.376" ry="0.376" width="2.37" height="0.75" />
</g>
<g transform="matrix(0.97 -0.26 0.26 0.97 310.46 657.78)" id="Rectangle_73"  >
<rect style="stroke: none; stroke-width: 1; stroke-dasharray: none; stroke-linecap: butt; stroke-dashoffset: 0; stroke-linejoin: miter; stroke-miterlimit: 4; fill: rgb(216,216,216); fill-rule: nonzero; opacity: 0.14;" vector-effect="non-scaling-stroke"  x="-1.185" y="-0.375" rx="0.376" ry="0.376" width="2.37" height="0.75" />
</g>
<g transform="matrix(0.97 -0.26 0.26 0.97 312.87 657.14)" id="Rectangle_74"  >
<rect style="stroke: none; stroke-width: 1; stroke-dasharray: none; stroke-linecap: butt; stroke-dashoffset: 0; stroke-linejoin: miter; stroke-miterlimit: 4; fill: rgb(216,216,216); fill-rule: nonzero; opacity: 0.14;" vector-effect="non-scaling-stroke"  x="-1.185" y="-0.375" rx="0.376" ry="0.376" width="2.37" height="0.75" />
</g>
<g transform="matrix(0.97 -0.26 0.26 0.97 315.28 656.49)" id="Rectangle_75"  >
<rect style="stroke: none; stroke-width: 1; stroke-dasharray: none; stroke-linecap: butt; stroke-dashoffset: 0; stroke-linejoin: miter; stroke-miterlimit: 4; fill: rgb(216,216,216); fill-rule: nonzero; opacity: 0.14;" vector-effect="non-scaling-stroke"  x="-1.185" y="-0.375" rx="0.376" ry="0.376" width="2.37" height="0.75" />
</g>
<g transform="matrix(0.97 -0.26 0.26 0.97 341.19 649.54)" id="Rectangle_85"  >
<rect style="stroke: none; stroke-width: 1; stroke-dasharray: none; stroke-linecap: butt; stroke-dashoffset: 0; stroke-linejoin: miter; stroke-miterlimit: 4; fill: rgb(216,216,216); fill-rule: nonzero; opacity: 0.14;" vector-effect="non-scaling-stroke"  x="-1.185" y="-0.375" rx="0.376" ry="0.376" width="2.37" height="0.75" />
</g>
<g transform="matrix(0.15 0 0 0.15 304.22 653.02)"  >
<g style="" vector-effect="non-scaling-stroke"   >
		<g transform="matrix(12.5 0 0 12.5 85.44 -283.19)"  >
<path style="stroke: none; stroke-width: 1; stroke-dasharray: none; stroke-linecap: butt; stroke-dashoffset: 0; stroke-linejoin: miter; stroke-miterlimit: 4; fill: rgb(209,241,244); fill-rule: evenodd; opacity: 1;" vector-effect="non-scaling-stroke"  transform=" translate(-38.84, -9.34)" d="M 35.92 6.92 L 41.760000000000005 6.92 C 43.10000000000001 6.92 44.18000000000001 8 44.18000000000001 9.35 C 44.18000000000001 10.7 43.10000000000001 11.77 41.760000000000005 11.77 L 35.92 11.77 C 34.58 11.77 33.5 10.69 33.5 9.35 C 33.5 8.01 34.58 6.92 35.92 6.92 Z" stroke-linecap="round" />
</g>
		<g transform="matrix(12.5 0 0 12.5 -208.62 -71.94)"  >
<path style="stroke: none; stroke-width: 1; stroke-dasharray: none; stroke-linecap: butt; stroke-dashoffset: 0; stroke-linejoin: miter; stroke-miterlimit: 4; fill: rgb(109,244,192); fill-rule: evenodd; opacity: 1;" vector-effect="non-scaling-stroke"  transform=" translate(-15.31, -26.24)" d="M 9.01 14.83 C 5.039999999999999 14.84 5 17.16 5 18.63 L 5 37.66 L 25.63 20.66 C 25.63 20.66 20.03 14.79 9.009999999999998 14.83 Z" stroke-linecap="round" />
</g>
		<g transform="matrix(12.5 0 0 12.5 -0.06 161.44)"  >
<path style="stroke: none; stroke-width: 1; stroke-dasharray: none; stroke-linecap: butt; stroke-dashoffset: 0; stroke-linejoin: miter; stroke-miterlimit: 4; fill: rgb(73,204,140); fill-rule: evenodd; opacity: 1;" vector-effect="non-scaling-stroke"  transform=" translate(-32, -44.91)" d="M 5 37.66 L 5 53.54 C 5 55.5 6.58 57.08 8.53 57.08 L 55.46 57.08 C 57.42 57.08 59 55.5 59 53.54 L 59 37.67 L 32.489999999999995 32.75 L 4.9999999999999964 37.66 Z" stroke-linecap="round" />
</g>
		<g transform="matrix(12.5 0 0 12.5 -124.99 223.44)"  >
<path style="stroke: none; stroke-width: 1; stroke-dasharray: none; stroke-linecap: butt; stroke-dashoffset: 0; stroke-linejoin: miter; stroke-miterlimit: 4; fill: rgb(109,212,161); fill-rule: evenodd; opacity: 1;" vector-effect="non-scaling-stroke"  transform=" translate(-22.01, -49.87)" d="M 12.13 42.67 C 9.940000000000001 42.690000000000005 7.570000000000001 42.980000000000004 5.000000000000001 43.67 L 5.000000000000001 53.54 C 5.000000000000001 55.5 6.580000000000001 57.08 8.530000000000001 57.08 L 38.09 57.08 C 39.53 52.58 38.85 47.37 38.85 47.37 C 30.79 50.62 23.96 42.599999999999994 12.130000000000003 42.669999999999995 Z" stroke-linecap="round" />
</g>
		<g transform="matrix(12.5 0 0 12.5 -0.06 -48.13)"  >
<path style="stroke: none; stroke-width: 1; stroke-dasharray: none; stroke-linecap: butt; stroke-dashoffset: 0; stroke-linejoin: miter; stroke-miterlimit: 4; fill: rgb(154,246,211); fill-rule: evenodd; opacity: 1;" vector-effect="non-scaling-stroke"  transform=" translate(-32, -28.15)" d="M 59 37.67 C 59 35.79 58.99 32.82 58.58 31.8 C 56.97 27.76 51.739999999999995 18.630000000000003 37.48 18.630000000000003 C 23.22 18.630000000000003 9.13 28.97 6.19 32.83 C 5.2 34.12 5 36.28 5 37.66 L 59 37.66 Z" stroke-linecap="round" />
</g>
		<g transform="matrix(12.5 0 0 12.5 188.88 -147.56)"  >
<path style="stroke: none; stroke-width: 1; stroke-dasharray: none; stroke-linecap: butt; stroke-dashoffset: 0; stroke-linejoin: miter; stroke-miterlimit: 4; fill: rgb(209,241,244); fill-rule: evenodd; opacity: 1;" vector-effect="non-scaling-stroke"  transform=" translate(-47.12, -20.2)" d="M 49.35 12.24 C 48.01 12.24 46.92 13.32 46.92 14.66 C 46.92 16 48 17.09 49.35 17.09 L 52.32 17.09 C 53.5 17.09 54.45 18.04 54.45 19.22 C 54.45 20.4 53.5 21.34 52.32 21.34 L 38.64 21.34 C 36.76 21.34 35.24 22.86 35.24 24.75 C 35.24 26.64 36.760000000000005 28.15 38.64 28.15 L 56.75 28.15 C 57.99 28.15 58.99 27.139999999999997 58.99 25.9 L 58.99 14.48 C 58.99 13.24 57.99 12.24 56.75 12.24 L 49.34 12.24 Z" stroke-linecap="round" />
</g>
		<g transform="matrix(12.5 0 0 12.5 85.12 215)"  >
<path style="stroke: none; stroke-width: 1; stroke-dasharray: none; stroke-linecap: butt; stroke-dashoffset: 0; stroke-linejoin: miter; stroke-miterlimit: 4; fill: rgb(145,222,179); fill-rule: evenodd; opacity: 1;" vector-effect="non-scaling-stroke"  transform=" translate(-38.81, -49.2)" d="M 59 41.32 C 51.22 41.32 45.37 42.35 38.85 47.37 C 30.560000000000002 53.75 21.400000000000002 47.919999999999995 18.630000000000003 57.08 L 55.46 57.08 C 57.42 57.08 59 55.5 59 53.54 L 59 41.32 Z" stroke-linecap="round" />
</g>
		<g transform="matrix(12.5 0 0 12.5 253.75 241.82)"  >
<path style="stroke: none; stroke-width: 1; stroke-dasharray: none; stroke-linecap: butt; stroke-dashoffset: 0; stroke-linejoin: miter; stroke-miterlimit: 4; fill: rgb(133,152,171); fill-rule: evenodd; opacity: 1;" vector-effect="non-scaling-stroke"  transform=" translate(-52.31, -51.34)" d="M 57.84 45.61 C 56.88 45.61 56.03 46.38 55.720000000000006 47.3 C 55.28000000000001 48.629999999999995 55.38 49.94 54.010000000000005 50.3 L 50.57000000000001 51.07 C 49.040000000000006 51.410000000000004 47.760000000000005 52.44 47.10000000000001 53.86 L 45.60000000000001 57.08 L 55.470000000000006 57.08 C 57.43000000000001 57.08 59.010000000000005 55.5 59.010000000000005 53.54 L 59.010000000000005 45.61 L 57.85000000000001 45.61 Z" stroke-linecap="round" />
</g>
		<g transform="matrix(12.5 0 0 12.5 -217.5 -201.19)"  >
<path style="stroke: none; stroke-width: 1; stroke-dasharray: none; stroke-linecap: butt; stroke-dashoffset: 0; stroke-linejoin: miter; stroke-miterlimit: 4; fill: rgb(209,241,244); fill-rule: evenodd; opacity: 1;" vector-effect="non-scaling-stroke"  transform=" translate(-14.61, -15.9)" d="M 12.81 22.34 C 13.9 22.34 14.77 21.46 14.77 20.38 C 14.77 19.299999999999997 13.889999999999999 18.419999999999998 12.809999999999999 18.419999999999998 L 10.399999999999999 18.419999999999998 C 9.45 18.419999999999998 8.679999999999998 17.65 8.679999999999998 16.7 C 8.679999999999998 15.75 9.449999999999998 14.969999999999999 10.399999999999999 14.969999999999999 L 21.46 14.969999999999999 C 22.98 14.969999999999999 24.21 13.749999999999998 24.21 12.219999999999999 C 24.21 10.69 22.98 9.469999999999999 21.46 9.469999999999999 L 6.82 9.469999999999999 C 5.82 9.469999999999999 5 10.28 5 11.29 L 5 20.52 C 5 21.53 5.8100000000000005 22.34 6.82 22.34 L 12.81 22.34 Z" stroke-linecap="round" />
</g>
		<g transform="matrix(12.5 0 0 12.5 -264.3 280.13)"  >
<path style="stroke: none; stroke-width: 1; stroke-dasharray: none; stroke-linecap: butt; stroke-dashoffset: 0; stroke-linejoin: miter; stroke-miterlimit: 4; fill: rgb(64,178,122); fill-rule: evenodd; opacity: 1;" vector-effect="non-scaling-stroke"  transform=" translate(-10.86, -54.41)" d="M 10.86 51.74 C 10.309999999999999 51.74 9.86 52.190000000000005 9.86 52.74 L 9.86 53.39 C 9.53 53.21 9.12 53 9.12 53 C 8.59 52.87 8.04 53.2 7.909999999999999 53.73 C 7.779999999999999 54.26 8.11 54.809999999999995 8.639999999999999 54.94 C 8.639999999999999 54.94 9.509999999999998 55.07 9.899999999999999 56.37 C 10.03 56.79 10.419999999999998 57.08 10.86 57.08 C 11.3 57.08 11.69 56.79 11.82 56.37 C 12.22 55.07 13.08 54.94 13.08 54.94 C 13.53 54.83 13.84 54.43 13.84 53.97 C 13.84 53.89 13.84 53.81 13.81 53.73 C 13.68 53.199999999999996 13.13 52.87 12.600000000000001 53 C 12.600000000000001 53 12.190000000000001 53.21 11.860000000000001 53.39 L 11.860000000000001 52.74 C 11.860000000000001 52.190000000000005 11.410000000000002 51.74 10.860000000000001 51.74 Z" stroke-linecap="round" />
</g>
		<g transform="matrix(12.5 0 0 12.5 176.94 119.12)"  >
<path style="stroke: none; stroke-width: 1; stroke-dasharray: none; stroke-linecap: butt; stroke-dashoffset: 0; stroke-linejoin: miter; stroke-miterlimit: 4; fill: rgb(64,178,122); fill-rule: evenodd; opacity: 1;" vector-effect="non-scaling-stroke"  transform=" translate(-46.16, -41.53)" d="M 46.16 38.86 C 45.61 38.86 45.16 39.31 45.16 39.86 L 45.16 40.51 C 44.83 40.339999999999996 44.419999999999995 40.129999999999995 44.419999999999995 40.129999999999995 C 43.88999999999999 39.989999999999995 43.339999999999996 40.31999999999999 43.209999999999994 40.85999999999999 C 43.07999999999999 41.38999999999999 43.41 41.93999999999999 43.93999999999999 42.06999999999999 C 43.93999999999999 42.06999999999999 44.80999999999999 42.18999999999999 45.19999999999999 43.489999999999995 C 45.32999999999999 43.91 45.71999999999999 44.199999999999996 46.15999999999999 44.199999999999996 C 46.59999999999999 44.199999999999996 46.98999999999999 43.91 47.11999999999999 43.489999999999995 C 47.51999999999999 42.19 48.37999999999999 42.06999999999999 48.37999999999999 42.06999999999999 C 48.90999999999999 41.93999999999999 49.23999999999999 41.38999999999999 49.109999999999985 40.85999999999999 C 48.97999999999998 40.31999999999999 48.429999999999986 39.989999999999995 47.899999999999984 40.129999999999995 C 47.899999999999984 40.129999999999995 47.48999999999999 40.339999999999996 47.15999999999998 40.51 L 47.15999999999998 39.86 C 47.15999999999998 39.31 46.70999999999998 38.86 46.15999999999998 38.86 Z" stroke-linecap="round" />
</g>
		<g transform="matrix(12.5 0 0 12.5 25.69 180.62)"  >
<path style="stroke: none; stroke-width: 1; stroke-dasharray: none; stroke-linecap: butt; stroke-dashoffset: 0; stroke-linejoin: miter; stroke-miterlimit: 4; fill: rgb(64,178,122); fill-rule: evenodd; opacity: 1;" vector-effect="non-scaling-stroke"  transform=" translate(-34.06, -46.45)" d="M 34.06 43.78 C 33.510000000000005 43.78 33.06 44.230000000000004 33.06 44.78 L 33.06 45.42 C 32.730000000000004 45.25 32.32 45.04 32.32 45.04 C 31.79 44.91 31.240000000000002 45.24 31.11 45.769999999999996 C 30.98 46.3 31.31 46.849999999999994 31.84 46.98 C 31.84 46.98 32.71 47.11 33.1 48.41 C 33.230000000000004 48.83 33.620000000000005 49.12 34.06 49.12 C 34.5 49.12 34.89 48.83 35.02 48.41 C 35.42 47.11 36.28 46.98 36.28 46.98 C 36.81 46.849999999999994 37.14 46.3 37.01 45.769999999999996 C 36.879999999999995 45.239999999999995 36.33 44.91 35.8 45.04 C 35.8 45.04 35.39 45.25 35.059999999999995 45.43 L 35.059999999999995 44.78 C 35.059999999999995 44.230000000000004 34.60999999999999 43.78 34.059999999999995 43.78 Z" stroke-linecap="round" />
</g>
		<g transform="matrix(12.5 0 0 12.5 -166.31 122.25)"  >
<path style="stroke: none; stroke-width: 1; stroke-dasharray: none; stroke-linecap: butt; stroke-dashoffset: 0; stroke-linejoin: miter; stroke-miterlimit: 4; fill: rgb(64,178,122); fill-rule: evenodd; opacity: 1;" vector-effect="non-scaling-stroke"  transform=" translate(-18.7, -41.78)" d="M 18.7 39.11 C 18.15 39.11 17.7 39.56 17.7 40.11 L 17.7 40.76 L 16.96 40.379999999999995 C 16.43 40.239999999999995 15.88 40.56999999999999 15.75 41.10999999999999 C 15.62 41.63999999999999 15.95 42.18999999999999 16.48 42.31999999999999 C 16.48 42.31999999999999 17.35 42.43999999999999 17.740000000000002 43.739999999999995 C 17.87 44.16 18.26 44.449999999999996 18.700000000000003 44.449999999999996 C 19.140000000000004 44.449999999999996 19.53 44.16 19.660000000000004 43.739999999999995 C 20.060000000000002 42.44 20.920000000000005 42.31999999999999 20.920000000000005 42.31999999999999 C 21.450000000000006 42.18999999999999 21.780000000000005 41.63999999999999 21.650000000000006 41.10999999999999 C 21.520000000000007 40.56999999999999 20.970000000000006 40.239999999999995 20.440000000000005 40.379999999999995 C 20.440000000000005 40.379999999999995 20.030000000000005 40.589999999999996 19.700000000000006 40.76 L 19.700000000000006 40.11 C 19.700000000000006 39.56 19.250000000000007 39.11 18.700000000000006 39.11 Z" stroke-linecap="round" />
</g>
</g>
</g>
<g transform="matrix(1 0 0 1 687.38 622.52)"  >
<path style="stroke: none; stroke-width: 1; stroke-dasharray: none; stroke-linecap: butt; stroke-dashoffset: 0; stroke-linejoin: miter; stroke-miterlimit: 4; fill: rgb(97,218,251); fill-rule: nonzero; opacity: 1;" vector-effect="non-scaling-stroke"  transform=" translate(-320.8, -78.4)" d="M 320.8 78.4 Z" stroke-linecap="round" />
</g>
<g transform="matrix(1 0 0 1 723.19 619.51)"  >
<path style="stroke: none; stroke-width: 1; stroke-dasharray: none; stroke-linecap: butt; stroke-dashoffset: 0; stroke-linejoin: miter; stroke-miterlimit: 4; fill: rgb(97,218,251); fill-rule: nonzero; opacity: 1;" vector-effect="non-scaling-stroke"  transform=" translate(-520.5, -78.1)" d="M 520.5 78.1 Z" stroke-linecap="round" />
</g>
<g transform="matrix(0.21 0 0 0.21 704.98 654.67)"  >
<g style="" vector-effect="non-scaling-stroke"   >
		<g transform="matrix(1 0 0 1 0 0)" id="logo-bg"  >
<rect style="stroke: none; stroke-width: 1; stroke-dasharray: none; stroke-linecap: butt; stroke-dashoffset: 0; stroke-linejoin: miter; stroke-miterlimit: 4; fill: rgb(186,227,206); fill-rule: nonzero; opacity: 1;" vector-effect="non-scaling-stroke"  x="-256" y="-256" rx="100" ry="100" width="512" height="512" />
</g>
		<g transform="matrix(1 0 0 1 -0.37 2.64)"  >
<path style="stroke: none; stroke-width: 1; stroke-dasharray: none; stroke-linecap: butt; stroke-dashoffset: 0; stroke-linejoin: miter; stroke-miterlimit: 4; fill: rgb(0,0,0); fill-opacity: 0.3; fill-rule: nonzero; opacity: 1;" vector-effect="non-scaling-stroke"  transform=" translate(-255.63, -258.64)" d="M 359.2 437.5 C 356.59999999999997 456.5 337.9 471.4 319.2 466.2 C 292.7 459 262 447.59999999999997 234.39999999999998 445.5 L 191.99999999999997 442.3 C 185.1886764497792 441.820651262385 178.78725891139038 438.8688865085724 173.99999999999997 434 L 100.99999999999997 359.2 C 93.06661289276978 351.04645084127964 90.92505563980728 338.87130127351134 95.59999999999997 328.5 C 95.59999999999997 328.5 140.59999999999997 229.9 142.39999999999998 224.8 C 143.99999999999997 219.70000000000002 150.2 174.9 153.79999999999998 150.9 C 154.80932838718422 144.52732964998765 157.988537749739 138.6987791519705 162.79999999999998 134.4 L 249 57.2 C 254.74001250702668 52.050979462706486 262.3494059159999 49.49705503448552 270.0335496020462 50.140554752036195 C 277.71769328809256 50.78405446958686 284.7963282076454 54.5680108267977 289.6 60.599999999999994 L 362.20000000000005 152.2 C 366.2623827998769 157.43104345430777 368.4462459496209 163.87696210597167 368.40000000000003 170.49999999999997 C 368.40000000000003 187.8 369.90000000000003 223.5 379.6 246.5 C 389.2248980845828 267.1852732983239 401.1681102666221 286.7104123150286 415.20000000000016 304.7000000000001 C 418.6756827835668 309.21242541710296 419.07108694717476 315.38073036938795 416.20000000000005 320.3 C 409.90000000000003 331 397.30000000000007 351.6 379.6 377.90000000000003 C 368.39453222215036 395.98313128231274 361.3891451318807 416.35001277402364 359.1 437.50000000000017 Z" stroke-linecap="round" />
</g>
		<g transform="matrix(1 0 0 1 0.45 -1.3)" id="arrow"  >
<path style="stroke: none; stroke-width: 1; stroke-dasharray: none; stroke-linecap: butt; stroke-dashoffset: 0; stroke-linejoin: miter; stroke-miterlimit: 4; fill: rgb(84,135,222); fill-rule: nonzero; opacity: 1;" vector-effect="non-scaling-stroke"  transform=" translate(-256.45, -254.7)" d="M 359.9 434.3 C 357.29999999999995 453.40000000000003 338.59999999999997 468.3 319.9 463.2 C 293.5 455.9 262.9 444.5 235.2 442.4 L 192.89999999999998 439.2 C 186.07268284794037 438.70300099048586 179.66634164511115 435.71337509583225 174.89999999999998 430.8 L 101.89999999999998 355.8 C 93.8886475010467 347.56428333142895 91.74523231398254 335.25949244272726 96.49999999999997 324.8 C 96.49999999999997 324.8 141.59999999999997 225.8 143.29999999999995 220.60000000000002 C 144.99999999999994 215.50000000000003 151.09999999999997 170.60000000000002 154.69999999999996 146.40000000000003 C 155.6874205676432 139.99148930377163 158.86841358988 134.12432439609046 163.69999999999996 129.80000000000004 L 249.89999999999998 52.30000000000004 C 255.65305463466814 47.162334948686365 263.2706692709098 44.62542818693352 270.9553533660555 45.28790095375642 C 278.64003746120113 45.950373720579314 285.71109362779725 49.75354520671473 290.5 55.80000000000003 L 363 147.80000000000004 C 367.04858221602035 153.03845598814942 369.2307817885206 159.47946440375483 369.2 166.10000000000002 C 369.2 183.50000000000006 370.7 219.30000000000007 380.3 242.40000000000003 C 389.91787044213726 263.1826408727459 401.8607935572246 282.80794992422375 415.9 300.9 C 419.4519686339547 305.4124206073252 419.88804141606545 311.6363684974505 417.00000000000006 316.6 C 410.6000000000001 327.40000000000003 398.1000000000001 348 380.30000000000007 374.5 C 369.13545674561334 392.6672586589187 362.166065685012 413.0971402973482 359.9000000000001 434.30000000000007 Z" stroke-linecap="round" />
</g>
		<g transform="matrix(1 0 0 1 -103.63 71.15)"  >
<radialGradient id="SVGID_b_32" gradientUnits="userSpaceOnUse" gradientTransform="matrix(-48 -185 123 -32 179 429.7)"  cx="0" cy="0" r="1" fx="0" fy="0">
<stop offset="0%" style="stop-color:rgb(255,255,255);stop-opacity: 0.4"/>
<stop offset="100%" style="stop-color:rgb(0,0,0);stop-opacity: 0.1"/>
</radialGradient>
<path style="stroke: none; stroke-width: 1; stroke-dasharray: none; stroke-linecap: butt; stroke-dashoffset: 0; stroke-linejoin: miter; stroke-miterlimit: 4; fill: url(#SVGID_b_32); fill-rule: nonzero; opacity: 1;" vector-effect="non-scaling-stroke"  transform=" translate(-152.37, -327.15)" d="M 182.7 436.4 C 216.6 367.7 215.7 318.4 201.2 283.4 C 188 250.99999999999997 163.29999999999998 230.59999999999997 143.89999999999998 217.89999999999998 C 143.49999999999997 219.79999999999998 142.89999999999998 221.59999999999997 142.09999999999997 223.29999999999998 L 96.5 324.8 C 91.7708987518508 335.2795233899505 93.95447317761615 347.586942880628 102 355.8 L 174.9 430.8 C 177.20000000000002 433.1 179.9 435 182.70000000000002 436.40000000000003 Z" stroke-linecap="round" />
</g>
		<g transform="matrix(1 0 0 1 80.81 -37.85)"  >
<radialGradient id="SVGID_c_33" gradientUnits="userSpaceOnUse" gradientTransform="matrix(41 -310 229 30 341.6 351.3)"  cx="0" cy="0" r="1" fx="0" fy="0">
<stop offset="0%" style="stop-color:rgb(255,255,255);stop-opacity: 0.6"/>
<stop offset="100%" style="stop-color:rgb(255,255,255);stop-opacity: 0.1"/>
</radialGradient>
<path style="stroke: none; stroke-width: 1; stroke-dasharray: none; stroke-linecap: butt; stroke-dashoffset: 0; stroke-linejoin: miter; stroke-miterlimit: 4; fill: url(#SVGID_c_33); fill-rule: nonzero; opacity: 1;" vector-effect="non-scaling-stroke"  transform=" translate(-336.81, -218.15)" d="M 274.9 297 C 284 297.9 292.9 299.9 301.7 303.1 C 329.5 313.5 354.8 336.90000000000003 375.7 382 C 377.2 379.4 378.7 376.9 380.3 374.5 C 393.0723760004992 355.546996213308 405.3105234489413 336.2394011924685 416.99999999999994 316.5999999999998 C 419.91653713598816 311.6564755854468 419.5201719993967 305.43354294096184 416 300.90000000000003 C 401.9259350989227 282.8128564992634 389.9493474316843 263.1873557000073 380.29999999999995 242.4000000000001 C 370.7 219.40000000000003 369.3 183.50000000000003 369.2 166.10000000000002 C 369.2 159.50000000000003 367.09999999999997 153.00000000000003 363 147.8 L 290.5 55.80000000000001 L 289.3 54.30000000000001 C 294.6 71.80000000000001 294.3 85.80000000000001 291 98.50000000000001 C 288 110.30000000000001 282.4 121.00000000000001 276.5 132.3 C 274.5 136.10000000000002 272.5 140 270.6 144 C 261.1957997829044 161.961220712732 255.80487606241388 181.75068753478575 254.8 202.00000000000003 C 253.8 226.2 258.7 256.5 274.8 297 Z" stroke-linecap="round" />
</g>
		<g transform="matrix(1 0 0 1 -37.36 -81.58)"  >
<radialGradient id="SVGID_d_34" gradientUnits="userSpaceOnUse" gradientTransform="matrix(57 -261 178 39 190.5 296.3)"  cx="0" cy="0" r="1" fx="0" fy="0">
<stop offset="0%" style="stop-color:rgb(255,255,255);stop-opacity: 0.8"/>
<stop offset="100%" style="stop-color:rgb(255,255,255);stop-opacity: 0.4"/>
</radialGradient>
<path style="stroke: none; stroke-width: 1; stroke-dasharray: none; stroke-linecap: butt; stroke-dashoffset: 0; stroke-linejoin: miter; stroke-miterlimit: 4; fill: url(#SVGID_d_34); fill-rule: nonzero; opacity: 1;" vector-effect="non-scaling-stroke"  transform=" translate(-218.64, -174.42)" d="M 274.8 297 C 258.7 256.5 253.8 226.2 254.8 202 C 255.8 178 262.8 160 270.6 144 L 276.6 132.3 C 282.40000000000003 121.00000000000001 287.90000000000003 110.30000000000001 291 98.50000000000001 C 294.6817817752691 83.90829534621689 294.0916858793255 68.56580205168338 289.3 54.30000000000004 C 278.9458020219683 42.92357682068385 261.3529737813394 42.030539854154476 249.9 52.30000000000002 L 163.7 129.8 C 158.86841358988002 134.12432439609043 155.68742056764324 139.9914893037716 154.7 146.4 L 144.2 216 C 144.2 216.7 144 217.3 143.89999999999998 218 C 163.29999999999998 230.6 187.89999999999998 251 201.2 283.3 C 203.79999999999998 289.7 206 296.40000000000003 207.6 303.7 C 229.45249689034424 297.63995424698174 252.1764780285131 295.34050377466707 274.8 296.90000000000003 Z" stroke-linecap="round" />
</g>
		<g transform="matrix(1 0 0 1 23.3 124.22)"  >
<radialGradient id="SVGID_e_35" gradientUnits="userSpaceOnUse" gradientTransform="matrix(-79 -133 153 -90 321.4 464.2)"  cx="0" cy="0" r="1" fx="0" fy="0">
<stop offset="0%" style="stop-color:rgb(255,255,255);stop-opacity: 0.3"/>
<stop offset="100%" style="stop-color:rgb(0,0,0);stop-opacity: 0.3"/>
</radialGradient>
<path style="stroke: none; stroke-width: 1; stroke-dasharray: none; stroke-linecap: butt; stroke-dashoffset: 0; stroke-linejoin: miter; stroke-miterlimit: 4; fill: url(#SVGID_e_35); fill-rule: nonzero; opacity: 1;" vector-effect="non-scaling-stroke"  transform=" translate(-279.3, -380.22)" d="M 320 463.2 C 338.6 468.3 357.3 453.4 359.9 434.2 C 362.0292351684269 415.9878102371241 367.4148730356566 398.3066595032002 375.79999999999995 382.00000000000006 C 354.79999999999995 336.9 329.49999999999994 313.5 301.79999999999995 303.1 C 272.29999999999995 292.1 240.19999999999996 295.8 207.59999999999997 303.70000000000005 C 214.89999999999998 336.80000000000007 210.59999999999997 380.1 182.79999999999995 436.40000000000003 C 185.89999999999995 438.00000000000006 189.39999999999995 438.90000000000003 192.89999999999995 439.20000000000005 L 236.79999999999995 442.50000000000006 C 260.59999999999997 444.20000000000005 296.09999999999997 456.50000000000006 319.99999999999994 463.20000000000005 Z" stroke-linecap="round" />
</g>
		<g transform="matrix(1 0 0 1 16.35 -72.85)"  >
<radialGradient id="SVGID_f_36" gradientUnits="userSpaceOnUse" gradientTransform="matrix(-29 136 -92 -20 300.7 149.9)"  cx="0" cy="0" r="1" fx="0" fy="0">
<stop offset="0%" style="stop-color:rgb(255,255,255);stop-opacity: 0"/>
<stop offset="100%" style="stop-color:rgb(255,255,255);stop-opacity: 0.2"/>
</radialGradient>
<path style="stroke: none; stroke-width: 1; stroke-dasharray: none; stroke-linecap: butt; stroke-dashoffset: 0; stroke-linejoin: miter; stroke-miterlimit: 4; fill: url(#SVGID_f_36); fill-rule: evenodd; opacity: 1;" vector-effect="non-scaling-stroke"  transform=" translate(-272.35, -183.15)" d="M 255 200.5 C 253.9 224.5 256.9 251.9 273 292.3 L 268 291.8 C 253.5 249.70000000000002 250.3 228.10000000000002 251.4 203.8 C 252.4 179.5 260.3 160.8 268.1 144.8 C 270.1 140.8 274.70000000000005 133.3 276.70000000000005 129.5 C 282.50000000000006 118.2 286.40000000000003 112.3 289.70000000000005 102 C 294.50000000000006 87.6 293.50000000000006 80.8 292.90000000000003 74 C 296.6 98.5 282.50000000000006 119.8 271.90000000000003 141.5 C 262.0866326004243 159.7276490760078 256.2900252803782 179.84528624557947 254.9 200.5000000000001 Z" stroke-linecap="round" />
</g>
		<g transform="matrix(1 0 0 1 -78.5 2.85)"  >
<radialGradient id="SVGID_g_37" gradientUnits="userSpaceOnUse" gradientTransform="matrix(72 73 -155 153 137.8 225.2)"  cx="0" cy="0" r="1" fx="0" fy="0">
<stop offset="0%" style="stop-color:rgb(255,255,255);stop-opacity: 0.2"/>
<stop offset="100%" style="stop-color:rgb(255,255,255);stop-opacity: 0.4"/>
</radialGradient>
<path style="stroke: none; stroke-width: 1; stroke-dasharray: none; stroke-linecap: butt; stroke-dashoffset: 0; stroke-linejoin: miter; stroke-miterlimit: 4; fill: url(#SVGID_g_37); fill-rule: evenodd; opacity: 1;" vector-effect="non-scaling-stroke"  transform=" translate(-177.5, -258.85)" d="M 206 285.1 C 208 289.5 209.7 293.1 210.9 298.6 L 206.6 299.6 C 204.9 293.20000000000005 203.6 288.6 201.1 283.1 C 186.5 248.8 163.1 231.10000000000002 144.1 218.10000000000002 C 167.1 230.50000000000003 190.8 250.00000000000003 206 285.1 Z" stroke-linecap="round" />
</g>
		<g transform="matrix(1 0 0 1 -57.24 112.75)"  >
<radialGradient id="SVGID_h_38" gradientUnits="userSpaceOnUse" gradientTransform="matrix(20 118 -251 43 215.1 273.7)"  cx="0" cy="0" r="1" fx="0" fy="0">
<stop offset="0%" style="stop-color:rgb(255,255,255);stop-opacity: 0.1"/>
<stop offset="100%" style="stop-color:rgb(255,255,255);stop-opacity: 0.3"/>
</radialGradient>
<path style="stroke: none; stroke-width: 1; stroke-dasharray: none; stroke-linecap: butt; stroke-dashoffset: 0; stroke-linejoin: miter; stroke-miterlimit: 4; fill: url(#SVGID_h_38); fill-rule: evenodd; opacity: 1;" vector-effect="non-scaling-stroke"  transform=" translate(-198.76, -368.75)" d="M 211.1 303 C 219.1 340.5 210.1 388.2 183.6 434.6 C 205.79999999999998 388.6 216.6 344.5 207.6 303.6 L 211.1 302.90000000000003 Z" stroke-linecap="round" />
</g>
		<g transform="matrix(1 0 0 1 35.1 80.52)"  >
<radialGradient id="SVGID_i_39" gradientUnits="userSpaceOnUse" gradientTransform="matrix(-162 -85 268 -510 374.4 371.7)"  cx="0" cy="0" r="1" fx="0" fy="0">
<stop offset="0%" style="stop-color:rgb(255,255,255);stop-opacity: 0.2"/>
<stop offset="50%" style="stop-color:rgb(255,255,255);stop-opacity: 0.2"/>
<stop offset="100%" style="stop-color:rgb(255,255,255);stop-opacity: 0.3"/>
</radialGradient>
<path style="stroke: none; stroke-width: 1; stroke-dasharray: none; stroke-linecap: butt; stroke-dashoffset: 0; stroke-linejoin: miter; stroke-miterlimit: 4; fill: url(#SVGID_i_39); fill-rule: evenodd; opacity: 1;" vector-effect="non-scaling-stroke"  transform=" translate(-291.1, -336.52)" d="M 302.7 299.5 C 346.2 315.8 363 351.5 375.5 381.4 C 360 350.2 338.5 315.7 301.1 302.9 C 272.70000000000005 293.09999999999997 248.70000000000002 294.29999999999995 207.60000000000002 303.59999999999997 L 206.70000000000002 299.59999999999997 C 250.3 289.59999999999997 273.1 288.4 302.70000000000005 299.59999999999997 Z" stroke-linecap="round" />
</g>
</g>
</g>
</svg>