<?xml version="1.0" encoding="UTF-8" standalone="no" ?>
<!DOCTYPE svg PUBLIC "-//W3C//DTD SVG 1.1//EN" "http://www.w3.org/Graphics/SVG/1.1/DTD/svg11.dtd">
<svg xmlns="http://www.w3.org/2000/svg" xmlns:xlink="http://www.w3.org/1999/xlink" version="1.1" width="1080" height="1080" viewBox="0 0 1080 1080" xml:space="preserve">
<desc>Created with Fabric.js 5.2.4</desc>
<defs>
</defs>
<rect x="0" y="0" width="100%" height="100%" fill="transparent"></rect>
<g transform="matrix(1 0 0 1 540 540)" id="b4421aff-b172-489c-8c88-900c8c9f414e"  >
</g>
<g transform="matrix(1 0 0 1 540 540)" id="7ef36a8c-d019-4454-9100-e8a0518bd7bb"  >
<rect style="stroke: none; stroke-width: 1; stroke-dasharray: none; stroke-linecap: butt; stroke-dashoffset: 0; stroke-linejoin: miter; stroke-miterlimit: 4; fill: rgb(255,255,255); fill-rule: nonzero; opacity: 1; visibility: hidden;" vector-effect="non-scaling-stroke"  x="-540" y="-540" rx="0" ry="0" width="1080" height="1080" />
</g>
<g transform="matrix(1 0 0 1 540 540)"  >
<path style="stroke: none; stroke-width: 1; stroke-dasharray: none; stroke-linecap: butt; stroke-dashoffset: 0; stroke-linejoin: miter; stroke-miterlimit: 4; fill: rgb(63,61,86); fill-rule: nonzero; opacity: 1;" vector-effect="non-scaling-stroke"  transform=" translate(-599.76, -436.03)" d="M 1017.81 560.461 C 1012.54 605.611 1001.5899999999999 641.861 986.56 670.771 C 966.56 709.2909999999999 932.3499999999999 724.8109999999999 901.79 741.0509999999999 C 892.9592082028834 745.7351279588825 883.77832941267 749.7271051167538 874.3299999999999 752.991 C 818.7199999999999 772.2909999999999 756.4799999999999 767.1709999999999 707.5899999999999 756.981 C 673.2994347912946 749.8276905481108 638.4919053214899 745.4270076023656 603.5000000000001 743.8210000000001 Q 588.5299999999999 743.1460000000001 573.5299999999999 743.1510000000001 C 558.1099999999999 743.171 280.45999999999987 748.441 212.85999999999984 611.5810000000001 C 196.16999999999985 577.8210000000001 184.72999999999985 536.5810000000001 180.61999999999983 486.31100000000015 C 168.98999999999984 344.19100000000014 232.90999999999983 250.85100000000014 315.35999999999984 189.84100000000012 C 471.3299999999998 74.43100000000013 685.1199999999999 79.27100000000013 838.7899999999997 197.72100000000012 C 941.15 276.621 1036.99 396.031 1017.81 560.461 Z" stroke-linecap="round" />
</g>
<g transform="matrix(1 0 0 1 540 625.93)"  >
<path style="stroke: none; stroke-width: 1; stroke-dasharray: none; stroke-linecap: butt; stroke-dashoffset: 0; stroke-linejoin: miter; stroke-miterlimit: 4; fill: rgb(242,242,242); fill-rule: nonzero; opacity: 1;" vector-effect="non-scaling-stroke"  transform=" translate(-599.71, -530.01)" d="M 986.56 670.771 C 966.56 709.2909999999999 939.3499999999999 734.8109999999999 908.79 751.0509999999999 C 899.9592134389462 755.7351388281771 890.7783337910186 759.7271163589949 881.3299999999999 762.991 C 825.7199999999999 782.2909999999999 763.4799999999999 777.1709999999999 714.5899999999999 766.981 C 680.2994221119246 759.8277663618809 645.4918987333685 755.4270841862461 610.4999999999993 753.8209999999998 Q 595.5299999999999 753.1460000000001 580.5299999999999 753.1510000000001 Q 557.3999999999999 753.181 534.2799999999999 754.8710000000001 C 434.10999999999984 762.2310000000001 280.45999999999987 748.4410000000001 212.85999999999984 611.5810000000001 L 382 283.981 L 444.95 445.6 L 465.03999999999996 497.19000000000005 L 520.41 421.21000000000004 L 549 381.981 L 679.2 531.251 L 716 449.981 L 970.78 657.9 L 984.99 669.49 Z" stroke-linecap="round" />
</g>
<g transform="matrix(1 0 0 1 329 463.48)"  >
<path style="stroke: none; stroke-width: 1; stroke-dasharray: none; stroke-linecap: butt; stroke-dashoffset: 0; stroke-linejoin: miter; stroke-miterlimit: 4; fill: rgb(0,0,0); fill-rule: nonzero; opacity: 0.1;" vector-effect="non-scaling-stroke"  transform=" translate(-333, -267.46)" d="M 302 282.962 L 328 225.962 L 364 308.962 L 333 248.962 Z" stroke-linecap="round" />
</g>
<g transform="matrix(1 0 0 1 477.77 715.51)"  >
<path style="stroke: none; stroke-width: 1; stroke-dasharray: none; stroke-linecap: butt; stroke-dashoffset: 0; stroke-linejoin: miter; stroke-miterlimit: 4; fill: rgb(0,0,0); fill-rule: nonzero; opacity: 0.1;" vector-effect="non-scaling-stroke"  transform=" translate(-537.77, -625.51)" d="M 610.5 753.821 Q 595.53 753.1460000000001 580.53 753.1510000000001 L 465.04 497.191 Z" stroke-linecap="round" />
</g>
<g transform="matrix(1 0 0 1 539.7 563.98)"  >
<path style="stroke: none; stroke-width: 1; stroke-dasharray: none; stroke-linecap: butt; stroke-dashoffset: 0; stroke-linejoin: miter; stroke-miterlimit: 4; fill: rgb(0,0,0); fill-rule: nonzero; opacity: 0.1;" vector-effect="non-scaling-stroke"  transform=" translate(-543.71, -367.96)" d="M 464.411 315.191 L 493 292.962 L 623 442.962 L 491 314.962 Z" stroke-linecap="round" />
</g>
<g transform="matrix(1 0 0 1 734 737.12)"  >
<path style="stroke: none; stroke-width: 1; stroke-dasharray: none; stroke-linecap: butt; stroke-dashoffset: 0; stroke-linejoin: miter; stroke-miterlimit: 4; fill: rgb(0,0,0); fill-rule: nonzero; opacity: 0.1;" vector-effect="non-scaling-stroke"  transform=" translate(-794, -647.12)" d="M 908.79 751.051 C 899.9592256570871 755.7351641911716 890.7783440076703 759.7271425922655 881.3299999999999 762.9910000000001 L 679.2 531.251 Z" stroke-linecap="round" />
</g>
<g transform="matrix(1 0 0 1 478 297.98)" id="Ellipse_11"  >
<circle style="stroke: none; stroke-width: 1; stroke-dasharray: none; stroke-linecap: butt; stroke-dashoffset: 0; stroke-linejoin: miter; stroke-miterlimit: 4; fill: rgb(242,242,242); fill-rule: nonzero; opacity: 1;" vector-effect="non-scaling-stroke"  cx="0" cy="0" r="3" />
</g>
<g transform="matrix(1 0 0 1 395 400.98)" id="Ellipse_12"  >
<circle style="stroke: none; stroke-width: 1; stroke-dasharray: none; stroke-linecap: butt; stroke-dashoffset: 0; stroke-linejoin: miter; stroke-miterlimit: 4; fill: rgb(242,242,242); fill-rule: nonzero; opacity: 1;" vector-effect="non-scaling-stroke"  cx="0" cy="0" r="3" />
</g>
<g transform="matrix(1 0 0 1 598 418.98)" id="Ellipse_13"  >
<circle style="stroke: none; stroke-width: 1; stroke-dasharray: none; stroke-linecap: butt; stroke-dashoffset: 0; stroke-linejoin: miter; stroke-miterlimit: 4; fill: rgb(242,242,242); fill-rule: nonzero; opacity: 1;" vector-effect="non-scaling-stroke"  cx="0" cy="0" r="2" />
</g>
<g transform="matrix(1 0 0 1 178 463.98)" id="Ellipse_14"  >
<circle style="stroke: none; stroke-width: 1; stroke-dasharray: none; stroke-linecap: butt; stroke-dashoffset: 0; stroke-linejoin: miter; stroke-miterlimit: 4; fill: rgb(242,242,242); fill-rule: nonzero; opacity: 1;" vector-effect="non-scaling-stroke"  cx="0" cy="0" r="2" />
</g>
<g transform="matrix(1 0 0 1 610 294.98)" id="Ellipse_15"  >
<circle style="stroke: none; stroke-width: 1; stroke-dasharray: none; stroke-linecap: butt; stroke-dashoffset: 0; stroke-linejoin: miter; stroke-miterlimit: 4; fill: rgb(242,242,242); fill-rule: nonzero; opacity: 1;" vector-effect="non-scaling-stroke"  cx="0" cy="0" r="2" />
</g>
<g transform="matrix(1 0 0 1 734 390.98)" id="Ellipse_16"  >
<circle style="stroke: none; stroke-width: 1; stroke-dasharray: none; stroke-linecap: butt; stroke-dashoffset: 0; stroke-linejoin: miter; stroke-miterlimit: 4; fill: rgb(242,242,242); fill-rule: nonzero; opacity: 1;" vector-effect="non-scaling-stroke"  cx="0" cy="0" r="2" />
</g>
<g transform="matrix(1 0 0 1 856 542.98)" id="Ellipse_17"  >
<circle style="stroke: none; stroke-width: 1; stroke-dasharray: none; stroke-linecap: butt; stroke-dashoffset: 0; stroke-linejoin: miter; stroke-miterlimit: 4; fill: rgb(242,242,242); fill-rule: nonzero; opacity: 1;" vector-effect="non-scaling-stroke"  cx="0" cy="0" r="2" />
</g>
<g transform="matrix(1 0 0 1 298.5 317.98)"  >
<path style="stroke: none; stroke-width: 1; stroke-dasharray: none; stroke-linecap: butt; stroke-dashoffset: 0; stroke-linejoin: miter; stroke-miterlimit: 4; fill: rgb(242,242,242); fill-rule: nonzero; opacity: 1;" vector-effect="non-scaling-stroke"  transform=" translate(-302.5, -121.96)" d="M 306 121.222 L 303.24 121.222 L 303.24 118.46199999999999 L 301.76 118.46199999999999 L 301.76 121.222 L 299 121.222 L 299 122.7 L 301.76 122.7 L 301.76 125.459 L 303.24 125.459 L 303.24 122.7 L 306 122.7 Z" stroke-linecap="round" />
</g>
<g transform="matrix(1 0 0 1 840.5 620.98)"  >
<path style="stroke: none; stroke-width: 1; stroke-dasharray: none; stroke-linecap: butt; stroke-dashoffset: 0; stroke-linejoin: miter; stroke-miterlimit: 4; fill: rgb(242,242,242); fill-rule: nonzero; opacity: 1;" vector-effect="non-scaling-stroke"  transform=" translate(-844.5, -424.96)" d="M 848 424.222 L 845.24 424.222 L 845.24 421.462 L 843.76 421.462 L 843.76 424.222 L 841 424.222 L 841 425.7 L 843.76 425.7 L 843.76 428.459 L 845.24 428.459 L 845.24 425.7 L 848 425.7 Z" stroke-linecap="round" />
</g>
<g transform="matrix(1 0 0 1 540 844.52)"  >
<path style="stroke: none; stroke-width: 1; stroke-dasharray: none; stroke-linecap: butt; stroke-dashoffset: 0; stroke-linejoin: miter; stroke-miterlimit: 4; fill: rgb(63,61,86); fill-rule: nonzero; opacity: 1;" vector-effect="non-scaling-stroke"  transform=" translate(-600, -754.52)" d="M 1144 719.981 C 1144 736.55 900.443 793.981 600 793.981 C 299.557 793.981 56 736.55 56 719.981 C 56 703.412 299.557 733.981 600 733.981 C 900.443 733.981 1144 703.413 1144 719.981 Z" stroke-linecap="round" />
</g>
<g transform="matrix(1 0 0 1 540 844.52)"  >
<path style="stroke: none; stroke-width: 1; stroke-dasharray: none; stroke-linecap: butt; stroke-dashoffset: 0; stroke-linejoin: miter; stroke-miterlimit: 4; fill: rgb(0,0,0); fill-rule: nonzero; opacity: 0.1;" vector-effect="non-scaling-stroke"  transform=" translate(-600, -754.52)" d="M 1144 719.981 C 1144 736.55 900.443 793.981 600 793.981 C 299.557 793.981 56 736.55 56 719.981 C 56 703.412 299.557 733.981 600 733.981 C 900.443 733.981 1144 703.413 1144 719.981 Z" stroke-linecap="round" />
</g>
<g transform="matrix(1 0 0 1 540 809.98)" id="Ellipse_18"  >
<ellipse style="stroke: none; stroke-width: 1; stroke-dasharray: none; stroke-linecap: butt; stroke-dashoffset: 0; stroke-linejoin: miter; stroke-miterlimit: 4; fill: rgb(63,61,86); fill-rule: nonzero; opacity: 1;" vector-effect="non-scaling-stroke"  cx="0" cy="0" rx="544" ry="30" />
</g>
<g transform="matrix(1 0 0 1 531 732.56)"  >
<path style="stroke: none; stroke-width: 1; stroke-dasharray: none; stroke-linecap: butt; stroke-dashoffset: 0; stroke-linejoin: miter; stroke-miterlimit: 4; fill: rgb(255,101,132); fill-rule: nonzero; opacity: 1;" vector-effect="non-scaling-stroke"  transform=" translate(-591, -642.56)" d="M 624 677.981 C 624 711.1179999999999 609.225 701.981 591 701.981 C 572.775 701.981 558 711.1179999999999 558 677.981 C 558 644.844 591 581.981 591 581.981 C 591 581.981 624 644.844 624 677.981 Z" stroke-linecap="round" />
</g>
<g transform="matrix(1 0 0 1 531 764.55)"  >
<path style="stroke: none; stroke-width: 1; stroke-dasharray: none; stroke-linecap: butt; stroke-dashoffset: 0; stroke-linejoin: miter; stroke-miterlimit: 4; fill: rgb(0,0,0); fill-rule: nonzero; opacity: 0.1;" vector-effect="non-scaling-stroke"  transform=" translate(-591, -674.56)" d="M 606 690.66 C 606 705.722 599.284 701.569 591 701.569 C 582.716 701.569 576 705.722 576 690.66 C 576 675.598 591 647.024 591 647.024 C 591 647.024 606 675.6 606 690.66 Z" stroke-linecap="round" />
</g>
<g transform="matrix(1 0 0 1 531 809.98)" id="Rectangle_97"  >
<rect style="stroke: none; stroke-width: 1; stroke-dasharray: none; stroke-linecap: butt; stroke-dashoffset: 0; stroke-linejoin: miter; stroke-miterlimit: 4; fill: rgb(47,46,65); fill-rule: nonzero; opacity: 1;" vector-effect="non-scaling-stroke"  x="-46" y="-9" rx="9" ry="9" width="92" height="18" />
</g>
<g transform="matrix(1 0 0 1 531 791.98)" id="Rectangle_98"  >
<rect style="stroke: none; stroke-width: 1; stroke-dasharray: none; stroke-linecap: butt; stroke-dashoffset: 0; stroke-linejoin: miter; stroke-miterlimit: 4; fill: rgb(47,46,65); fill-rule: nonzero; opacity: 1;" vector-effect="non-scaling-stroke"  x="-46" y="-9" rx="9" ry="9" width="92" height="18" />
</g>
<g transform="matrix(1 0 0 1 171.81 736.61)"  >
<path style="stroke: none; stroke-width: 1; stroke-dasharray: none; stroke-linecap: butt; stroke-dashoffset: 0; stroke-linejoin: miter; stroke-miterlimit: 4; fill: rgb(63,61,86); fill-rule: nonzero; opacity: 1;" vector-effect="non-scaling-stroke"  transform=" translate(-231.81, -646.61)" d="M 193 596.547 C 193 651.89 227.719 696.673 270.626 696.673" stroke-linecap="round" />
</g>
<g transform="matrix(1 0 0 1 253.94 736.05)"  >
<path style="stroke: none; stroke-width: 1; stroke-dasharray: none; stroke-linecap: butt; stroke-dashoffset: 0; stroke-linejoin: miter; stroke-miterlimit: 4; fill: rgb(108,99,255); fill-rule: nonzero; opacity: 1;" vector-effect="non-scaling-stroke"  transform=" translate(-313.94, -646.05)" d="M 270.626 696.673 C 270.626 640.708 309.371 595.422 357.25199999999995 595.422" stroke-linecap="round" />
</g>
<g transform="matrix(1 0 0 1 185.88 739.11)"  >
<path style="stroke: none; stroke-width: 1; stroke-dasharray: none; stroke-linecap: butt; stroke-dashoffset: 0; stroke-linejoin: miter; stroke-miterlimit: 4; fill: rgb(108,99,255); fill-rule: nonzero; opacity: 1;" vector-effect="non-scaling-stroke"  transform=" translate(-245.88, -649.12)" d="M 221.125 601.564 C 221.125 654.134 243.265 696.673 270.625 696.673" stroke-linecap="round" />
</g>
<g transform="matrix(1 0 0 1 260.69 721.99)"  >
<path style="stroke: none; stroke-width: 1; stroke-dasharray: none; stroke-linecap: butt; stroke-dashoffset: 0; stroke-linejoin: miter; stroke-miterlimit: 4; fill: rgb(63,61,86); fill-rule: nonzero; opacity: 1;" vector-effect="non-scaling-stroke"  transform=" translate(-320.69, -631.98)" d="M 270.626 696.673 C 270.626 625.162 315.409 567.296 370.75199999999995 567.296" stroke-linecap="round" />
</g>
<g transform="matrix(1 0 0 1 214.78 791.83)"  >
<path style="stroke: none; stroke-width: 1; stroke-dasharray: none; stroke-linecap: butt; stroke-dashoffset: 0; stroke-linejoin: miter; stroke-miterlimit: 4; fill: rgb(168,168,168); fill-rule: nonzero; opacity: 1;" vector-effect="non-scaling-stroke"  transform=" translate(-274.78, -701.83)" d="M 254.3 697.379 C 254.3 697.379 265.309 697.04 268.62600000000003 694.679 C 271.94300000000004 692.318 285.56000000000006 689.496 286.38300000000004 693.284 C 287.206 697.072 302.927 712.128 290.49800000000005 712.229 C 278.0690000000001 712.33 261.619 710.293 258.30800000000005 708.2760000000001 C 254.99700000000007 706.2590000000001 254.3 697.379 254.3 697.379 Z" stroke-linecap="round" />
</g>
<g transform="matrix(1 0 0 1 214.77 794.81)"  >
<path style="stroke: none; stroke-width: 1; stroke-dasharray: none; stroke-linecap: butt; stroke-dashoffset: 0; stroke-linejoin: miter; stroke-miterlimit: 4; fill: rgb(0,0,0); fill-rule: nonzero; opacity: 0.2;" vector-effect="non-scaling-stroke"  transform=" translate(-274.78, -704.8)" d="M 290.716 710.909 C 278.28700000000003 711.009 261.837 708.973 258.526 706.956 C 256.004 705.4200000000001 254.99900000000002 699.908 254.663 697.365 L 254.29500000000002 697.379 C 254.29500000000002 697.379 254.995 706.258 258.30400000000003 708.279 C 261.61300000000006 710.3 278.06500000000005 712.332 290.494 712.232 C 294.08200000000005 712.203 295.321 710.927 295.25300000000004 709.0319999999999 C 294.755 710.174 293.386 710.887 290.716 710.909 Z" stroke-linecap="round" />
</g>
<g transform="matrix(1 0 0 1 744.1 757.48)"  >
<path style="stroke: none; stroke-width: 1; stroke-dasharray: none; stroke-linecap: butt; stroke-dashoffset: 0; stroke-linejoin: miter; stroke-miterlimit: 4; fill: rgb(63,61,86); fill-rule: nonzero; opacity: 1;" vector-effect="non-scaling-stroke"  transform=" translate(-804.1, -667.48)" d="M 777.429 633.081 C 777.429 671.11 801.286 701.881 830.77 701.881" stroke-linecap="round" />
</g>
<g transform="matrix(1 0 0 1 800.53 757.1)"  >
<path style="stroke: none; stroke-width: 1; stroke-dasharray: none; stroke-linecap: butt; stroke-dashoffset: 0; stroke-linejoin: miter; stroke-miterlimit: 4; fill: rgb(108,99,255); fill-rule: nonzero; opacity: 1;" vector-effect="non-scaling-stroke"  transform=" translate(-860.53, -667.09)" d="M 830.769 701.882 C 830.769 663.4259999999999 857.392 632.3069999999999 890.294 632.3069999999999" stroke-linecap="round" />
</g>
<g transform="matrix(1 0 0 1 753.76 759.21)"  >
<path style="stroke: none; stroke-width: 1; stroke-dasharray: none; stroke-linecap: butt; stroke-dashoffset: 0; stroke-linejoin: miter; stroke-miterlimit: 4; fill: rgb(108,99,255); fill-rule: nonzero; opacity: 1;" vector-effect="non-scaling-stroke"  transform=" translate(-813.76, -669.21)" d="M 796.755 636.528 C 796.755 672.652 811.968 701.8820000000001 830.769 701.8820000000001" stroke-linecap="round" />
</g>
<g transform="matrix(1 0 0 1 805.17 747.43)"  >
<path style="stroke: none; stroke-width: 1; stroke-dasharray: none; stroke-linecap: butt; stroke-dashoffset: 0; stroke-linejoin: miter; stroke-miterlimit: 4; fill: rgb(63,61,86); fill-rule: nonzero; opacity: 1;" vector-effect="non-scaling-stroke"  transform=" translate(-865.17, -657.43)" d="M 830.769 701.882 C 830.769 652.7429999999999 861.542 612.982 899.569 612.982" stroke-linecap="round" />
</g>
<g transform="matrix(1 0 0 1 773.62 795.43)"  >
<path style="stroke: none; stroke-width: 1; stroke-dasharray: none; stroke-linecap: butt; stroke-dashoffset: 0; stroke-linejoin: miter; stroke-miterlimit: 4; fill: rgb(168,168,168); fill-rule: nonzero; opacity: 1;" vector-effect="non-scaling-stroke"  transform=" translate(-833.62, -705.43)" d="M 819.548 702.367 C 819.548 702.367 827.113 702.134 829.392 700.511 C 831.671 698.8879999999999 841.028 696.949 841.5920000000001 699.553 C 842.1560000000002 702.157 852.9600000000002 712.502 844.4200000000001 712.571 C 835.88 712.6400000000001 824.576 711.241 822.301 709.855 C 820.0260000000001 708.469 819.548 702.367 819.548 702.367 Z" stroke-linecap="round" />
</g>
<g transform="matrix(1 0 0 1 773.62 797.47)"  >
<path style="stroke: none; stroke-width: 1; stroke-dasharray: none; stroke-linecap: butt; stroke-dashoffset: 0; stroke-linejoin: miter; stroke-miterlimit: 4; fill: rgb(0,0,0); fill-rule: nonzero; opacity: 0.2;" vector-effect="non-scaling-stroke"  transform=" translate(-833.62, -707.47)" d="M 844.574 711.664 C 836.034 711.733 824.7299999999999 710.334 822.4549999999999 708.948 C 820.722 707.8919999999999 820.0319999999999 704.105 819.8009999999999 702.358 L 819.5479999999999 702.3679999999999 C 819.5479999999999 702.3679999999999 820.0269999999999 708.468 822.3029999999999 709.8549999999999 C 824.5789999999998 711.2419999999998 835.8819999999998 712.6399999999999 844.4219999999999 712.5709999999999 C 846.887 712.5509999999999 847.7389999999999 711.6709999999999 847.6919999999999 710.3709999999999 C 847.349 711.159 846.409 711.649 844.574 711.664 Z" stroke-linecap="round" />
</g>
<g transform="matrix(1 0 0 1 911.78 815.9)"  >
<path style="stroke: none; stroke-width: 1; stroke-dasharray: none; stroke-linecap: butt; stroke-dashoffset: 0; stroke-linejoin: miter; stroke-miterlimit: 4; fill: rgb(168,168,168); fill-rule: nonzero; opacity: 1;" vector-effect="non-scaling-stroke"  transform=" translate(-971.78, -725.9)" d="M 949.813 724.718 C 949.813 724.718 961.173 722.9889999999999 964.313 720.127 C 967.453 717.265 981.203 712.6389999999999 982.53 716.4599999999999 C 983.857 720.281 1002.024 733.9069999999999 989.163 735.5669999999999 C 976.302 737.2269999999999 959.01 737.1759999999999 955.328 735.5019999999998 C 951.646 733.8279999999997 949.813 724.718 949.813 724.718 Z" stroke-linecap="round" />
</g>
<g transform="matrix(1 0 0 1 911.77 820.72)"  >
<path style="stroke: none; stroke-width: 1; stroke-dasharray: none; stroke-linecap: butt; stroke-dashoffset: 0; stroke-linejoin: miter; stroke-miterlimit: 4; fill: rgb(0,0,0); fill-rule: nonzero; opacity: 0.2;" vector-effect="non-scaling-stroke"  transform=" translate(-971.78, -730.72)" d="M 989.228 734.173 C 976.3679999999999 735.832 959.0749999999999 735.782 955.3929999999999 734.108 C 952.593 732.833 950.858 727.25 950.1929999999999 724.6579999999999 L 949.8139999999999 724.7189999999999 C 949.8139999999999 724.7189999999999 951.6469999999998 733.828 955.3299999999998 735.502 C 959.0129999999998 737.1759999999999 976.3049999999998 737.227 989.1649999999998 735.567 C 992.8769999999998 735.088 994.0009999999999 733.611 993.6939999999998 731.6610000000001 C 993.319 732.907 991.991 733.817 989.228 734.173 Z" stroke-linecap="round" />
</g>
<g transform="matrix(1 0 0 1 628.8 814.9)"  >
<path style="stroke: none; stroke-width: 1; stroke-dasharray: none; stroke-linecap: butt; stroke-dashoffset: 0; stroke-linejoin: miter; stroke-miterlimit: 4; fill: rgb(168,168,168); fill-rule: nonzero; opacity: 1;" vector-effect="non-scaling-stroke"  transform=" translate(-688.8, -724.89)" d="M 670.26 723.9 C 670.26 723.9 679.847 722.441 682.497 720.025 C 685.1469999999999 717.6089999999999 696.752 713.7049999999999 697.871 716.93 C 698.99 720.155 714.323 731.655 703.471 733.055 C 692.619 734.4549999999999 678.023 734.4129999999999 674.916 733 C 671.8090000000001 731.5870000000001 670.26 723.9 670.26 723.9 Z" stroke-linecap="round" />
</g>
<g transform="matrix(1 0 0 1 628.8 818.96)"  >
<path style="stroke: none; stroke-width: 1; stroke-dasharray: none; stroke-linecap: butt; stroke-dashoffset: 0; stroke-linejoin: miter; stroke-miterlimit: 4; fill: rgb(0,0,0); fill-rule: nonzero; opacity: 0.2;" vector-effect="non-scaling-stroke"  transform=" translate(-688.8, -728.96)" d="M 703.524 731.875 C 692.671 733.275 678.076 733.233 674.969 731.82 C 672.6020000000001 730.744 671.142 726.032 670.5790000000001 723.844 L 670.259 723.8950000000001 C 670.259 723.8950000000001 671.806 731.5820000000001 674.914 732.9950000000001 C 678.0219999999999 734.4080000000001 692.614 734.4510000000001 703.4689999999999 733.0500000000001 C 706.602 732.6500000000001 707.55 731.3990000000001 707.2909999999999 729.7500000000001 C 706.977 730.807 705.856 731.575 703.524 731.875 Z" stroke-linecap="round" />
</g>
<g transform="matrix(1 0 0 1 132.82 809.88)"  >
<path style="stroke: none; stroke-width: 1; stroke-dasharray: none; stroke-linecap: butt; stroke-dashoffset: 0; stroke-linejoin: miter; stroke-miterlimit: 4; fill: rgb(168,168,168); fill-rule: nonzero; opacity: 1;" vector-effect="non-scaling-stroke"  transform=" translate(-192.82, -719.88)" d="M 178.389 719.109 C 178.389 719.109 185.852 717.9730000000001 187.916 716.0930000000001 C 189.98 714.2130000000001 199.016 711.1730000000001 199.885 713.6840000000001 C 200.754 716.195 212.69299999999998 725.147 204.243 726.2370000000001 C 195.793 727.3270000000001 184.432 727.2940000000001 182.013 726.1940000000001 C 179.59400000000002 725.094 178.389 719.109 178.389 719.109 Z" stroke-linecap="round" />
</g>
<g transform="matrix(1 0 0 1 132.82 813.05)"  >
<path style="stroke: none; stroke-width: 1; stroke-dasharray: none; stroke-linecap: butt; stroke-dashoffset: 0; stroke-linejoin: miter; stroke-miterlimit: 4; fill: rgb(0,0,0); fill-rule: nonzero; opacity: 0.2;" vector-effect="non-scaling-stroke"  transform=" translate(-192.82, -723.05)" d="M 204.285 725.321 C 195.83599999999998 726.4110000000001 184.474 726.378 182.055 725.278 C 180.213 724.44 179.076 720.772 178.638 719.0690000000001 L 178.389 719.109 C 178.389 719.109 179.589 725.0930000000001 182.013 726.1940000000001 C 184.437 727.2950000000001 195.794 727.3270000000001 204.243 726.2370000000001 C 206.682 725.922 207.42 724.9520000000001 207.219 723.671 C 206.973 724.489 206.1 725.087 204.285 725.321 Z" stroke-linecap="round" />
</g>
<g transform="matrix(1 0 0 1 286.32 790.06)"  >
<path style="stroke: none; stroke-width: 1; stroke-dasharray: none; stroke-linecap: butt; stroke-dashoffset: 0; stroke-linejoin: miter; stroke-miterlimit: 4; fill: rgb(0,0,0); fill-rule: nonzero; opacity: 0.1;" vector-effect="non-scaling-stroke"  transform=" translate(-346.31, -700.06)" d="M 439.7 707.337 C 439.7 737.557 397.57599999999996 728.21 346 728.21 C 294.42400000000004 728.21 252.926 737.557 252.926 707.337 C 252.926 677.117 295.044 670.544 346.62 670.544 C 398.196 670.544 439.7 677.117 439.7 707.337 Z" stroke-linecap="round" />
</g>
<g transform="matrix(1 0 0 1 286.32 782.62)"  >
<path style="stroke: none; stroke-width: 1; stroke-dasharray: none; stroke-linecap: butt; stroke-dashoffset: 0; stroke-linejoin: miter; stroke-miterlimit: 4; fill: rgb(63,61,86); fill-rule: nonzero; opacity: 1;" vector-effect="non-scaling-stroke"  transform=" translate(-346.31, -692.62)" d="M 439.7 699.9 C 439.7 730.12 397.57599999999996 720.773 346 720.773 C 294.42400000000004 720.773 252.926 730.12 252.926 699.9 C 252.926 669.68 295.04 663.1 346.616 663.1 C 398.19199999999995 663.1 439.7 669.676 439.7 699.9 Z" stroke-linecap="round" />
</g>
<g transform="matrix(0.97 -0.26 0.26 0.97 422.34 710.72)" id="Rectangle_81"  >
<rect style="stroke: none; stroke-width: 1; stroke-dasharray: none; stroke-linecap: butt; stroke-dashoffset: 0; stroke-linejoin: miter; stroke-miterlimit: 4; fill: rgb(216,216,216); fill-rule: nonzero; opacity: 0.14;" vector-effect="non-scaling-stroke"  x="-2.495" y="-0.79" rx="0.723" ry="0.723" width="4.99" height="1.58" />
</g>
<g transform="matrix(0.97 -0.26 0.26 0.97 427.41 709.36)" id="Rectangle_82"  >
<rect style="stroke: none; stroke-width: 1; stroke-dasharray: none; stroke-linecap: butt; stroke-dashoffset: 0; stroke-linejoin: miter; stroke-miterlimit: 4; fill: rgb(216,216,216); fill-rule: nonzero; opacity: 0.14;" vector-effect="non-scaling-stroke"  x="-2.495" y="-0.79" rx="0.723" ry="0.723" width="4.99" height="1.58" />
</g>
<g transform="matrix(1.92 0 0 1.92 386.78 678.94)"  >
<g style="" vector-effect="non-scaling-stroke"   >
		<g transform="matrix(-3.56 0 0 3.56 -22.37 -62.37)"  >
<circle style="stroke: rgb(204,204,204); stroke-width: 2.74; stroke-dasharray: none; stroke-linecap: round; stroke-dashoffset: 0; stroke-linejoin: round; stroke-miterlimit: 4; fill: rgb(96,213,215); fill-rule: nonzero; opacity: 1;" vector-effect="non-scaling-stroke"  cx="0" cy="0" r="3" />
</g>
		<g transform="matrix(-3.56 0 0 3.56 -0.09 18.34)"  >
<path style="stroke: rgb(204,204,204); stroke-width: 2.74; stroke-dasharray: none; stroke-linecap: round; stroke-dashoffset: 0; stroke-linejoin: round; stroke-miterlimit: 4; fill: rgb(96,213,215); fill-rule: nonzero; opacity: 1;" vector-effect="non-scaling-stroke"  transform=" translate(-31.53, -40.77)" d="M 29.0042 51.3216 C 33.0465 51.3216 35.789 51.053999999999995 37.8676 50.903499999999994 C 40.89531283574498 50.78247316646754 43.25189745873143 48.23034587458794 43.1317 45.2026 L 42.1712 30.321599999999997 C 42.1712 29.583299999999998 41.986599999999996 25.405599999999996 37.6712 25.405599999999996 C 36.66000312573302 25.388677026215785 35.695176219047454 25.829018470717266 35.0454 26.603999999999996 C 33.75090885347861 28.07785471542505 33.06502754128037 29.988649200281085 33.1267 31.949299999999994 L 33.1712 36.3216 L 31.2543 40.379 L 30.782 44.5077 L 23.1657 47.0177 C 22.51155771704325 47.217338177935076 21.912562939097626 47.56581622560733 21.4157 48.035799999999995 L 21.340700000000002 48.10679999999999 C 20.38806398004365 48.9832304068592 19.872330131198463 50.236450335780106 19.93215226095357 51.52953461662852 C 19.991974390708673 52.82261889747692 20.62121343977536 54.022868793214826 21.6507 54.807599999999994 C 22.9571885309078 55.67602258210513 24.495346997135993 56.12994540321759 26.064 56.11 C 33.004 56.3212 42.4587 54.2589 42.4587 54.2589 L 39.4046 51.000699999999995" stroke-linecap="round" />
</g>
		<g transform="matrix(-3.56 0 0 3.56 -22.37 -62.36)"  >
<circle style="stroke: rgb(0,0,0); stroke-width: 1.58; stroke-dasharray: none; stroke-linecap: round; stroke-dashoffset: 0; stroke-linejoin: round; stroke-miterlimit: 10; fill: none; fill-rule: nonzero; opacity: 1;" vector-effect="non-scaling-stroke"  cx="0" cy="0" r="3" />
</g>
		<g transform="matrix(-3.56 0 0 3.56 -15.64 8.52)"  >
<path style="stroke: rgb(0,0,0); stroke-width: 1.58; stroke-dasharray: none; stroke-linecap: round; stroke-dashoffset: 0; stroke-linejoin: round; stroke-miterlimit: 4; fill: none; fill-rule: nonzero; opacity: 1;" vector-effect="non-scaling-stroke"  transform=" translate(-35.91, -38)" d="M 28.84 51.0011 C 32.8823 51.0011 35.79 50.8876 37.8685 50.7371 C 40.892945326070084 50.52749573020337 43.175373513385736 47.90666477575483 42.9675 44.882099999999994 L 42.7648 39.5821 L 42.1325 29.043599999999998 C 41.96459373887454 26.787742451739994 40.101865584528326 25.03350166806042 37.84 25.0011 L 37.84 25.0011 C 35.57462610712639 25.07180470895444 33.69321804126693 26.77160102080115 33.3937 29.0182 L 32.84 33.98 L 32.14 41.001" stroke-linecap="round" />
</g>
		<g transform="matrix(-3.56 0 0 3.56 2.58 52.29)"  >
<path style="stroke: rgb(0,0,0); stroke-width: 1.58; stroke-dasharray: none; stroke-linecap: round; stroke-dashoffset: 0; stroke-linejoin: round; stroke-miterlimit: 4; fill: none; fill-rule: nonzero; opacity: 1;" vector-effect="non-scaling-stroke"  transform=" translate(-30.78, -50.3)" d="M 31.438 44.8535 L 22.98 47.1643 C 22.33196075041108 47.34950030546823 21.7338701706912 47.67807418166406 21.23 48.125699999999995 L 21.155 48.192699999999995 C 20.206724049914552 48.99472047905221 19.686217922763294 50.192738277952486 19.747088563724006 51.433205484854234 C 19.807959204684717 52.67367269175599 20.44325746173582 53.8149743168629 21.465500000000002 54.52029999999999 C 22.787883821727178 55.34527119609326 24.31974111523664 55.77226248736994 25.8782 55.75029999999999 C 31.20116871417167 55.794398308105386 36.522535382364595 55.545756282103476 41.81820000000002 55.00549999999996" stroke-linecap="round" />
</g>
		<g transform="matrix(-3.56 0 0 3.56 -2.87 3.5)"  >
<polyline style="stroke: rgb(0,0,0); stroke-width: 1.58; stroke-dasharray: none; stroke-linecap: round; stroke-dashoffset: 0; stroke-linejoin: round; stroke-miterlimit: 4; fill: none; fill-rule: nonzero; opacity: 1;" vector-effect="non-scaling-stroke"  points="5.63,-6.63 4.89,3.69 -5.64,6.63 " />
</g>
		<g transform="matrix(-3.56 0 0 3.56 -22.37 -62.36)"  >
<circle style="stroke: none; stroke-width: 1; stroke-dasharray: none; stroke-linecap: butt; stroke-dashoffset: 0; stroke-linejoin: miter; stroke-miterlimit: 4; fill: rgb(96,213,215); fill-rule: nonzero; opacity: 1;" vector-effect="non-scaling-stroke"  cx="0" cy="0" r="3" />
</g>
		<g transform="matrix(-3.56 0 0 3.56 -0.09 18.34)"  >
<path style="stroke: none; stroke-width: 1; stroke-dasharray: none; stroke-linecap: butt; stroke-dashoffset: 0; stroke-linejoin: miter; stroke-miterlimit: 4; fill: rgb(96,213,215); fill-rule: nonzero; opacity: 1;" vector-effect="non-scaling-stroke"  transform=" translate(-31.53, -40.77)" d="M 29.0042 51.3216 C 33.0465 51.3216 35.789 51.053999999999995 37.8676 50.903499999999994 C 40.89531283574498 50.78247316646754 43.25189745873143 48.23034587458794 43.1317 45.2026 L 42.1712 30.321599999999997 C 42.1712 29.583299999999998 41.986599999999996 25.405599999999996 37.6712 25.405599999999996 C 36.66000312573302 25.388677026215785 35.695176219047454 25.829018470717266 35.0454 26.603999999999996 C 33.75090885347861 28.07785471542505 33.06502754128037 29.988649200281085 33.1267 31.949299999999994 L 33.1712 36.3216 L 31.2543 40.379 L 30.782 44.5077 L 23.1657 47.0177 C 22.51155771704325 47.217338177935076 21.912562939097626 47.56581622560733 21.4157 48.035799999999995 L 21.340700000000002 48.10679999999999 C 20.38806398004365 48.9832304068592 19.872330131198463 50.236450335780106 19.93215226095357 51.52953461662852 C 19.991974390708673 52.82261889747692 20.62121343977536 54.022868793214826 21.6507 54.807599999999994 C 22.9571885309078 55.67602258210513 24.495346997135993 56.12994540321759 26.064 56.11 C 33.004 56.3212 42.4587 54.2589 42.4587 54.2589 L 39.4046 51.000699999999995" stroke-linecap="round" />
</g>
		<g transform="matrix(-3.56 0 0 3.56 -22.37 -62.36)"  >
<circle style="stroke: rgb(0,0,0); stroke-width: 1.58; stroke-dasharray: none; stroke-linecap: butt; stroke-dashoffset: 0; stroke-linejoin: miter; stroke-miterlimit: 10; fill: none; fill-rule: nonzero; opacity: 1;" vector-effect="non-scaling-stroke"  cx="0" cy="0" r="3" />
</g>
		<g transform="matrix(-3.56 0 0 3.56 -15.64 8.52)"  >
<path style="stroke: rgb(0,0,0); stroke-width: 1.58; stroke-dasharray: none; stroke-linecap: round; stroke-dashoffset: 0; stroke-linejoin: round; stroke-miterlimit: 4; fill: none; fill-rule: nonzero; opacity: 1;" vector-effect="non-scaling-stroke"  transform=" translate(-35.91, -38)" d="M 28.84 51.0011 C 32.8823 51.0011 35.79 50.8876 37.8685 50.7371 C 40.892945326070084 50.52749573020337 43.175373513385736 47.90666477575483 42.9675 44.882099999999994 L 42.7648 39.5821 L 42.1325 29.043599999999998 C 41.96459373887454 26.787742451739994 40.101865584528326 25.03350166806042 37.84 25.0011 L 37.84 25.0011 C 35.57462610712639 25.07180470895444 33.69321804126693 26.77160102080115 33.3937 29.0182 L 32.84 33.98 L 32.14 41.001" stroke-linecap="round" />
</g>
		<g transform="matrix(-3.56 0 0 3.56 2.58 52.29)"  >
<path style="stroke: rgb(0,0,0); stroke-width: 1.58; stroke-dasharray: none; stroke-linecap: round; stroke-dashoffset: 0; stroke-linejoin: round; stroke-miterlimit: 4; fill: none; fill-rule: nonzero; opacity: 1;" vector-effect="non-scaling-stroke"  transform=" translate(-30.78, -50.3)" d="M 31.438 44.8535 L 22.98 47.1643 C 22.33196075041108 47.34950030546823 21.7338701706912 47.67807418166406 21.23 48.125699999999995 L 21.155 48.192699999999995 C 20.206724049914552 48.99472047905221 19.686217922763294 50.192738277952486 19.747088563724006 51.433205484854234 C 19.807959204684717 52.67367269175599 20.44325746173582 53.8149743168629 21.465500000000002 54.52029999999999 C 22.787883821727178 55.34527119609326 24.31974111523664 55.77226248736994 25.8782 55.75029999999999 C 31.20116871417167 55.794398308105386 36.522535382364595 55.545756282103476 41.81820000000002 55.00549999999996" stroke-linecap="round" />
</g>
		<g transform="matrix(-3.56 0 0 3.56 -2.87 3.5)"  >
<polyline style="stroke: rgb(0,0,0); stroke-width: 1.58; stroke-dasharray: none; stroke-linecap: round; stroke-dashoffset: 0; stroke-linejoin: round; stroke-miterlimit: 4; fill: none; fill-rule: nonzero; opacity: 1;" vector-effect="non-scaling-stroke"  points="5.63,-6.63 4.89,3.69 -5.64,6.63 " />
</g>
</g>
</g>
</svg>